<?xml version="1.0" encoding="UTF-8" standalone="no"?>
<!-- Created with Inkscape (http://www.inkscape.org/) -->

<svg
   xmlns:dc="http://purl.org/dc/elements/1.1/"
   xmlns:cc="http://creativecommons.org/ns#"
   xmlns:rdf="http://www.w3.org/1999/02/22-rdf-syntax-ns#"
   xmlns:svg="http://www.w3.org/2000/svg"
   xmlns="http://www.w3.org/2000/svg"
   xmlns:sodipodi="http://sodipodi.sourceforge.net/DTD/sodipodi-0.dtd"
   xmlns:inkscape="http://www.inkscape.org/namespaces/inkscape"
   width="744.09448819"
   height="1052.3622047"
   id="svg2"
   version="1.1"
   inkscape:version="0.48.4 r9939"
   sodipodi:docname="rh6pdcar.svg">
  <defs
     id="defs4" />
  <sodipodi:namedview
     id="base"
     pagecolor="#ffffff"
     bordercolor="#666666"
     borderopacity="1.0"
     inkscape:pageopacity="0.0"
     inkscape:pageshadow="2"
     inkscape:zoom="1.4142136"
     inkscape:cx="429.16991"
     inkscape:cy="517.75454"
     inkscape:document-units="px"
     inkscape:current-layer="layer1"
     showgrid="false"
     inkscape:window-width="1920"
     inkscape:window-height="1060"
     inkscape:window-x="1678"
     inkscape:window-y="897"
     inkscape:window-maximized="1" />
  <metadata
     id="metadata7">
    <rdf:RDF>
      <cc:Work
         rdf:about="">
        <dc:format>image/svg+xml</dc:format>
        <dc:type
           rdf:resource="http://purl.org/dc/dcmitype/StillImage" />
      </cc:Work>
    </rdf:RDF>
  </metadata>
  <g
     inkscape:label="Layer 1"
     inkscape:groupmode="layer"
     id="layer1">
    <path
       style="fill:#000000"
       d="m 306.3705,831.90405 c -5.41302,-2.84467 -9.2015,-8.36822 -10.71359,-15.62024 -0.56015,-2.68651 -1.07515,-4.90703 -1.14445,-4.93448 -0.0693,-0.0274 -5.8184,0.18774 -12.77579,0.47821 -15.00327,0.6264 -32.03306,2.2997 -56.59123,5.56049 -59.72264,7.92986 -72.93806,9.31735 -82.53492,8.66535 -13.44448,-0.9134 -22.35126,-3.23316 -32.44534,-8.45039 -8.05839,-4.16505 -16.033821,-12.23395 -19.676631,-19.90722 -1.47112,-3.09879 -3.02379,-7.10089 -3.4504,-8.89354 -0.64663,-2.71732 -1.77239,-4.3214 -6.76916,-9.64543 -16.882975,-17.98868 -25.179184,-37.64505 -27.992408,-66.32292 -1.155581,-11.78001 -1.155581,-68.11347 0,-79.8935 2.91716,-29.73744 11.076755,-48.43391 29.782618,-68.24235 3.52155,-3.72912 4.29109,-5.01808 5.56486,-9.32091 6.83082,-23.07487 30.589591,-36.41093 63.287011,-35.52371 4.21106,0.11426 10.05326,0.5034 12.98269,0.86474 2.92943,0.36134 8.02264,0.97558 11.31825,1.36498 9.64578,1.13972 15.50009,1.88629 23.30227,2.97163 15.51922,2.15882 49.7344,6.37335 59.58723,7.33979 8.94604,0.8775 36.05487,2.44176 36.41095,2.10103 0.0693,-0.0663 0.5843,-2.31862 1.14445,-5.00513 0.56016,-2.68651 1.76019,-6.15021 2.66674,-7.69712 4.67809,-7.98256 13.99393,-11.6393 16.6096,-6.51976 0.57115,1.11791 1.11639,5.35657 1.41186,10.97572 l 0.48137,9.15446 74.33261,0.01 c 43.10543,0.005 78.80773,-0.27483 84.98508,-0.66766 5.85886,-0.37258 20.68908,-0.97602 32.95607,-1.34097 26.05797,-0.77524 29.91823,-1.27432 51.82871,-6.70071 22.82169,-5.65208 27.29746,-6.53366 43.71059,-8.60958 13.34394,-1.68773 31.34825,-1.84986 39.78298,-0.35824 7.44938,1.31737 13.86802,3.89396 17.47309,7.01416 2.8394,2.45745 2.84693,2.4595 10.74208,2.91195 9.70445,0.55614 19.34753,2.11736 24.21225,3.91999 17.75246,6.57814 29.47464,25.69654 31.93842,52.09029 0.37603,4.02796 0.68389,12.64149 0.68422,19.14115 l 5.4e-4,11.81758 1.66444,0 c 1.66445,0 1.66445,0 1.66445,6.65779 0,6.65779 0,6.65779 -1.66445,6.65779 l -1.66444,0 0,44.94009 0,44.94009 1.66444,0 c 1.66445,0 1.66445,0 1.66445,6.6578 0,6.55439 -0.0246,6.65779 -1.57284,6.65779 l -1.57284,0 -0.36324,16.47803 c -0.4783,21.70086 -2.11259,30.86931 -7.5012,42.08251 -4.47138,9.30452 -10.41452,16.297 -17.83689,20.98634 -7.09255,4.48092 -15.53655,6.53301 -30.40733,7.38968 -8.12823,0.46826 -8.38515,0.53084 -11.02311,2.68496 -7.4237,6.06212 -17.44372,8.49334 -34.91564,8.47177 -19.32948,-0.0238 -36.32344,-2.52994 -64.24769,-9.47453 -26.67681,-6.63435 -28.40027,-6.82755 -72.23703,-8.09735 -29.60144,-0.85747 -166.90268,-1.67576 -171.27055,-1.02075 l -3.03308,0.45483 -0.44099,8.45768 c -0.46846,8.98438 -1.13714,11.77842 -3.06595,12.81068 -1.74331,0.93302 -4.65688,0.73886 -6.94313,-0.46263 z"
       id="path3305" />
    <path
       style="fill:#000000"
       d="m 312.23746,831.723 c 0.94253,-0.35835 1.94031,-1.51962 2.37357,-2.76248 0.9424,-2.70335 0.98433,-22.03803 0.055,-25.38395 -1.06788,-3.84499 -3.51306,-5.37652 -8.06405,-5.05089 -6.78904,0.48577 -10.55112,4.89805 -10.55112,12.37467 0,8.85592 4.57547,17.26734 10.98536,20.19521 3.12791,1.42873 3.10187,1.4256 5.20118,0.62744 z"
       id="path3303" />
    <path
       style="fill:#008000"
       d="m 646.12683,826.08179 c 6.51744,-1.42371 11.06191,-3.45973 15.14454,-6.7851 l 3.38555,-2.75757 7.60786,-0.31879 7.60779,-0.31879 2.91205,-2.73941 c 1.64767,-1.54992 4.32856,-3.20988 6.17423,-3.82292 3.2271,-1.07186 11.8273,-1.49222 13.19801,-0.64508 1.1759,0.72674 5.03323,-2.11564 9.67511,-7.12925 7.86824,-8.49848 13.20146,-21.83515 14.92976,-37.33491 0.98462,-8.82976 0.98462,-173.8559 0,-182.68567 -1.89567,-17.00042 -8.17451,-31.39407 -17.40733,-39.9046 -4.94814,-4.56106 -5.76271,-4.93212 -9.15353,-4.16982 -6.18316,1.39004 -15.85793,-1.78161 -18.96472,-6.21715 -0.83049,-1.18568 -1.88628,-1.38757 -8.81005,-1.68456 -7.77257,-0.33342 -7.89587,-0.36382 -10.33309,-2.54833 -3.1307,-2.80605 -6.45966,-4.49884 -12.98428,-6.60254 -4.31198,-1.3903 -6.98733,-1.73795 -15.84068,-2.05847 -19.17627,-0.69424 -39.95216,2.0774 -67.58667,9.01652 -10.07545,2.52997 -21.01087,5.07498 -24.30093,5.65558 -14.41002,2.54294 -69.02199,3.93693 -156.44802,3.9934 -44.45192,0.0287 -68.07843,0.27384 -68.39861,0.70964 -0.26903,0.36618 -0.49373,1.44312 -0.49933,2.3932 l -0.0102,1.72743 13.14915,0.43241 c 57.2663,1.88319 144.72837,0.92773 230.52601,-2.51832 12.76307,-0.51263 22.10395,-0.62694 22.7743,-0.2787 0.62505,0.32472 1.35635,1.71026 1.62513,3.07897 0.63808,3.24939 0.68599,15.9748 0.0685,18.21216 -0.60917,2.20743 -4.13287,3.91778 -25.41377,12.33554 -8.81737,3.48776 -23.0722,9.13478 -31.67739,12.54897 -21.85576,8.67145 -22.30616,8.736 -41.74675,5.98308 -21.17911,-2.99911 -32.06922,-3.809 -51.46233,-3.82717 -19.09326,-0.0179 -27.49757,0.49307 -52.78912,3.20956 -8.34492,0.89631 -18.71941,1.62965 -23.05439,1.62965 -7.70525,0 -8.21544,-0.096 -22.77681,-4.28378 -22.45101,-6.45686 -60.84556,-19.24651 -76.10722,-25.35213 -4.02791,-1.61141 -4.82461,-1.72939 -7.09163,-1.05017 -2.96486,0.88829 -6.51969,5.14303 -11.55575,13.83095 -4.37014,7.53911 -8.27316,22.42154 -12.0086,45.78943 -5.50934,34.46487 -5.2544,72.99742 0.70843,107.07243 3.65572,20.89082 7.02559,33.6335 10.68753,40.41333 5.7739,10.68997 11.20206,16.08779 15.1722,15.08738 0.76187,-0.19198 9.73462,-3.36845 19.93943,-7.05883 21.23142,-7.67795 43.64083,-14.96024 62.7624,-20.39564 l 13.22402,-3.759 10.31958,0.36246 c 5.67577,0.19936 15.71239,0.9712 22.3036,1.7152 21.48901,2.42562 31.65872,3.0219 50.93211,2.98631 19.93024,-0.0368 28.15736,-0.6703 51.93076,-3.99878 18.41073,-2.57765 19.61344,-2.35719 46.93743,8.60394 7.68975,3.08477 19.52398,7.77917 26.29828,10.43201 12.95413,5.07287 22.82865,9.64349 24.07276,11.14256 0.7993,0.9631 0.96639,16.15325 0.2153,19.57296 -0.23554,1.07237 -0.9525,2.23034 -1.59328,2.57327 -0.73306,0.39232 -9.66157,0.27766 -24.08038,-0.30924 -84.45459,-3.43764 -157.82855,-4.26921 -225.47864,-2.55539 l -16.81091,0.42588 0.0102,1.73431 c 0.005,0.95387 0.23031,2.03391 0.49934,2.40008 0.31999,0.43555 23.28241,0.68139 66.40127,0.71092 62.02507,0.0425 113.60472,0.88846 140.14651,2.29863 13.59049,0.72206 21.62387,2.06793 39.35196,6.59279 21.20744,5.41292 34.48599,7.87187 50.52822,9.35691 9.21752,0.85329 27.35533,0.35137 33.16505,-0.91775 z"
       id="path3301" />
    <path
       style="fill:#000000"
       d="m 689.22277,801.31669 c -1.05259,-1.05263 -1.15346,-1.93874 -0.78455,-6.89591 0.61451,-8.25812 2.62424,-15.35348 6.70273,-23.66411 3.64727,-7.43183 6.69481,-11.52586 12.69435,-17.05331 5.35179,-4.93065 8.25479,-5.84925 9.75412,-3.08651 1.19495,2.20182 0.94455,17.59138 -0.39274,24.13449 -1.57629,7.71268 -5.06665,14.45159 -10.09474,19.48992 -6.33369,6.34668 -15.12777,9.8268 -17.87917,7.07543 z"
       id="path3299" />
    <path
       style="fill:#ffff00"
       d="m 695.88842,800.3634 c 10.75387,-3.67381 18.14148,-13.60634 20.59814,-27.69394 0.99367,-5.69825 1.34427,-17.88108 0.59494,-20.675 -0.98908,-3.68806 -4.32577,-2.0729 -11.73189,5.67895 -9.00919,9.42981 -14.98822,23.13113 -16.23343,37.19971 -0.33562,3.79234 -0.21032,4.7951 0.71491,5.72035 1.39701,1.397 1.28183,1.40138 6.05733,-0.23007 z"
       id="path3297" />
    <path
       style="fill:#000000"
       d="m 656.01371,791.39124 c -5.06645,-0.85386 -9.3857,-1.72645 -9.59832,-1.93907 -0.63318,-0.63318 1.04501,-0.43817 10.4878,1.21873 4.94341,0.86739 10.84627,1.53515 13.11744,1.4839 3.84808,-0.0868 4.32171,-0.27464 6.95248,-2.75632 l 2.82303,-2.66312 -1.95912,2.42167 c -1.0775,1.33192 -2.64734,2.75503 -3.48842,3.16246 -2.27251,1.10073 -8.02357,0.80957 -18.33489,-0.92825 z"
       id="path3295" />
    <path
       style="fill:#000000"
       d="m 637.26272,787.40988 c -3.2956,-0.86025 -5.46319,-1.58864 -4.81685,-1.61864 0.64634,-0.03 3.04315,0.419 5.32623,0.99778 7.3184,1.85528 8.21388,2.1395 6.81419,2.16279 -0.73236,0.0122 -4.02796,-0.68168 -7.32357,-1.54193 z"
       id="path3293" />
    <path
       style="fill:#000000"
       d="m 679.56704,785.62545 c -0.0153,-0.61045 0.59068,-2.55179 1.34614,-4.31408 6.93789,-16.1855 10.60753,-53.69426 10.60753,-108.42423 0,-42.81041 -2.21964,-75.43201 -6.40999,-94.20775 -2.48635,-11.14026 -6.97876,-21.78404 -10.04028,-23.78805 -3.70972,-2.42831 -17.58137,-0.58024 -41.46951,5.52484 -14.11415,3.60713 -18.47173,5.58221 -20.22179,9.16557 l -1.2471,2.5535 2.39944,10.42919 c 3.26947,14.21089 4.21236,19.39752 5.38666,29.63085 1.39195,12.13011 2.41383,32.18326 1.80355,35.39224 -0.35207,1.85119 -0.6445,-1.19354 -0.95917,-9.98668 -0.7397,-20.66946 -2.55314,-34.75561 -6.83711,-53.10829 -1.26236,-5.40795 -2.29407,-10.80076 -2.2927,-11.98403 0.004,-2.79635 1.95437,-5.93663 4.75583,-7.65435 5.60105,-3.43428 38.46798,-11.13246 50.83422,-11.90653 5.53323,-0.34635 6.16718,-0.25495 8.27944,1.19364 5.59607,3.83776 10.78702,20.37668 13.65706,43.5128 3.497,28.19046 4.48975,80.58542 2.30852,121.83758 -1.61978,30.63466 -4.92217,51.08633 -10.24774,63.4651 -0.89414,2.07823 -1.63795,3.27914 -1.653,2.66868 z"
       id="path3291" />
    <path
       style="fill:#000000"
       d="m 623.61425,783.73936 c -1.21703,-0.7865 -0.16584,-0.7865 1.66444,0 0.878,0.37728 0.99139,0.58465 0.3329,0.60879 -0.54927,0.0201 -1.44807,-0.25382 -1.99734,-0.60879 z"
       id="path3289" />
    <path
       style="fill:#000000"
       d="m 617.62816,781.54814 c -1.64455,-0.80882 -3.69354,-2.51917 -4.55332,-3.80079 -1.96884,-2.93486 -1.79476,-5.21064 1.47692,-19.3076 4.82864,-20.80554 6.28033,-36.87946 7.06512,-78.22904 l 0.53072,-27.96273 -0.22389,32.29029 c -0.28365,40.90954 -1.33792,52.5564 -6.94999,76.7793 -3.50944,15.14744 -3.26267,16.27878 4.37692,20.06695 1.79572,0.89042 2.81554,1.62237 2.26627,1.62655 -0.54927,0.004 -2.34421,-0.65413 -3.98875,-1.46293 z"
       id="path3287" />
    <path
       style="fill:#000000"
       d="m 585.20144,772.44877 c -16.39669,-4.35911 -56.02804,-20.28013 -58.75251,-23.60255 -1.67123,-2.038 -1.59848,-8.15191 0.21859,-18.36919 6.32651,-35.57376 6.45805,-77.1453 0.35736,-112.95294 -3.23114,-18.96499 -2.97312,-20.0294 5.87793,-24.24857 15.9487,-7.60252 46.45549,-18.87378 56.70475,-20.95054 5.09748,-1.03288 5.48573,-1.02611 7.86682,0.13728 3.17768,1.55259 5.30067,5.76561 8.49133,16.85089 6.07578,21.10885 8.154,41.73965 8.28466,82.24243 0.10044,31.14283 -1.44638,54.58579 -4.64955,70.46604 -1.67153,8.28693 -5.40656,21.132 -7.52506,25.87925 -3.04971,6.83398 -5.64462,7.53335 -16.87432,4.5479 z"
       id="path3285" />
    <path
       style="fill:#00ffff"
       d="m 598.54788,771.58889 c 2.84587,-2.60096 8.19254,-19.13371 10.71179,-33.12252 2.89602,-16.08092 3.34489,-24.80428 3.35729,-65.24635 0.0121,-39.30543 -0.18956,-43.87251 -2.71856,-61.58456 -2.0634,-14.45113 -8.00839,-34.10169 -11.31837,-37.41166 -1.07359,-1.0736 -2.30999,-1.53642 -4.10441,-1.53642 -5.36398,0 -19.46376,4.41355 -39.76951,12.44874 -18.03944,7.1384 -26.60204,11.26237 -27.71581,13.34865 -1.26358,2.36693 -0.98658,6.65973 1.34666,20.87012 5.33413,32.48693 5.59808,72.57973 0.67899,103.13279 -3.06075,19.01064 -3.2648,20.85366 -2.58738,23.36941 0.78518,2.91593 1.39778,3.33644 11.30017,7.7569 23.11276,10.31761 49.22187,19.37308 56.05477,19.44158 2.34089,0.0234 3.53671,-0.34466 4.76437,-1.46668 z"
       id="path3283" />
    <path
       style="fill:#000000"
       d="m 258.30397,769.94712 c -2.36894,-2.21292 -9.39762,-16.28896 -13.07131,-26.17737 -4.57035,-12.30192 -8.13088,-27.36488 -9.9092,-41.92123 -1.15827,-9.48095 -1.14102,-47.03333 0.0264,-57.58989 2.09855,-18.97554 7.41203,-38.0995 15.31723,-55.1289 6.16072,-13.27141 8.5076,-15.66365 14.61396,-14.89644 6.10114,0.76656 62.50531,19.66349 67.59466,22.64604 5.56792,3.26302 6.13344,7.15856 3.35029,23.07836 -1.10631,6.32815 -1.22214,11.34446 -1.22214,52.92945 0,41.65697 0.11435,46.59033 1.22673,52.92943 0.6747,3.84488 1.36799,9.23769 1.54065,11.98403 0.39967,6.35723 -0.81717,8.88792 -5.49565,11.42946 -7.26004,3.94392 -61.37391,21.74667 -67.86098,22.32535 -3.75087,0.3346 -4.14064,0.23201 -6.11069,-1.60829 z"
       id="path3281" />
    <path
       style="fill:#00ffff"
       d="m 278.56152,766.79628 c 15.24027,-4.73188 40.96409,-13.37448 48.82344,-16.40352 7.71891,-2.97493 10.41089,-6.59703 9.59565,-12.9111 -0.23738,-1.83857 -0.85122,-5.88945 -1.36406,-9.00197 -1.65448,-10.04105 -2.2877,-25.64783 -2.26753,-55.88652 0.0204,-30.68339 0.62632,-45.15083 2.34364,-55.96437 0.55245,-3.4787 1.15943,-7.29417 1.34883,-8.47882 0.49545,-3.09888 -0.73531,-6.95755 -2.8641,-8.97952 -2.38742,-2.26762 -8.05425,-4.47221 -32.05083,-12.46882 -28.24976,-9.41393 -37.73088,-12.18909 -39.96602,-11.69817 -1.03101,0.22645 -2.64732,1.22106 -3.59181,2.21026 -2.10597,2.20566 -9.48653,17.42663 -12.77064,26.33698 -9.45832,25.66203 -12.79,58.58931 -9.60923,94.96892 1.8398,21.0424 7.14602,40.26644 16.41609,59.47427 4.65654,9.64847 7.42056,13.09565 10.50037,13.09565 0.89572,0 7.851,-1.93197 15.4562,-4.29327 z"
       id="path3279" />
    <path
       style="fill:#000000"
       d="m 408.90048,740.39892 c -12.3227,-0.76501 -27.89823,-2.49262 -32.94121,-3.65379 -5.55184,-1.27834 -9.55384,-3.64188 -10.85666,-6.41184 -4.02215,-8.55162 -4.9123,-77.74263 -1.40286,-109.04403 1.10084,-9.81859 5.13084,-11.95789 26.8918,-14.27533 11.95505,-1.27317 29.97633,-2.35418 39.38823,-2.36271 7.0541,-0.006 7.10821,0.006 8.75916,1.96779 0.91366,1.08583 1.83338,3.10813 2.04382,4.49401 2.00188,13.18371 2.73342,78.38592 1.19357,106.38131 -1.35266,24.59181 -0.78068,23.67753 -14.72602,23.53854 -5.33208,-0.0532 -13.58951,-0.33841 -18.34983,-0.63395 z"
       id="path3277" />
    <path
       style="fill:#00ffff"
       d="m 437.81401,738.61667 c 2.14412,-2.14412 2.27459,-3.19894 3.3538,-27.11435 1.51406,-33.55197 1.17948,-65.66004 -1.00201,-96.16117 -0.41175,-5.75696 -0.61078,-6.44253 -2.38551,-8.21727 l -1.93628,-1.93628 -9.47709,0.42905 c -26.97759,1.22134 -47.77228,3.29232 -53.81341,5.35936 -1.68191,0.57548 -3.98907,2.00789 -5.12701,3.18312 -1.8418,1.90213 -2.1454,2.79479 -2.76473,8.12879 -1.36792,11.78131 -2.0268,28.31746 -2.02985,50.94347 -0.004,31.09885 1.492,54.17828 3.73406,57.6001 1.38306,2.11083 5.7425,4.13921 11.32379,5.26882 8.81339,1.78374 35.44576,3.92319 53.06619,4.26294 4.87224,0.0939 5.33108,-0.0196 7.05805,-1.74658 z"
       id="path3275" />
    <path
       style="fill:#000000"
       d="m 700.42624,734.73468 c 2.76192,-42.05543 2.86477,-76.09567 0.35559,-117.66069 -0.39414,-6.52944 -0.61032,-11.97803 -0.48036,-12.10798 0.34088,-0.34088 16.06858,9.98156 17.09781,11.22165 1.2693,1.52943 1.27277,111.86533 0.006,113.39465 -0.67457,0.81287 -11.11219,7.88838 -16.48437,11.17452 -0.77583,0.47458 -0.85512,-0.49558 -0.4922,-6.02215 z"
       id="path3273" />
    <path
       style="fill:#000000"
       d="m 708.10739,735.0392 c 3.51212,-2.25113 7.05979,-4.70016 7.8837,-5.44228 l 1.498,-1.34934 0,-55.42586 0,-55.42586 -1.83089,-1.43671 c -1.60932,-1.26286 -14.01605,-9.31702 -14.35207,-9.31705 -0.0708,0 0.22177,6.21671 0.65,13.81492 1.84434,32.72184 2.12903,51.93131 1.15413,77.86614 -0.52024,13.83975 -1.17277,28.68349 -1.45007,32.98609 -0.27729,4.3026 -0.37689,7.8229 -0.2213,7.8229 0.15559,0 3.15639,-1.84182 6.6685,-4.09295 z"
       id="path3271" />
    <path
       style="fill:#000000"
       d="m 709.49502,593.65689 c -5.98789,-4.90967 -10.47085,-10.7383 -14.33582,-18.63929 -4.31612,-8.82317 -6.22298,-15.35047 -6.76007,-23.1406 -0.35365,-5.12922 -0.25046,-5.99783 0.85827,-7.22296 1.61251,-1.78182 4.50892,-1.45984 9.95985,1.10721 8.66424,4.08032 15.57417,13.80712 17.94588,25.26168 1.3524,6.53144 1.6229,21.92052 0.4243,24.13449 -1.30287,2.40664 -3.91871,1.92161 -8.09241,-1.50053 z"
       id="path3269" />
    <path
       style="fill:#ffff00"
       d="m 716.91046,594.15875 c 0.98988,-2.51718 0.25819,-19.29781 -1.07983,-24.76505 -2.98349,-12.19126 -11.43069,-21.68191 -21.85233,-24.55164 -2.19241,-0.60372 -2.71458,-0.52318 -3.82823,0.59043 -1.49501,1.49502 -1.53229,2.08042 -0.57737,9.06423 1.3745,10.05298 6.82317,23.20719 12.49661,30.16936 4.91498,6.03146 11.10893,11.31473 13.27251,11.32108 0.46678,9e-4 1.17264,-0.82141 1.56864,-1.82841 z"
       id="path3267" />
    <path
       style="fill:#008000"
       d="m 172.216,822.34677 c 9.33756,-1.09976 23.71838,-2.91603 31.9574,-4.03615 37.65307,-5.11905 58.71913,-7.40788 76.50498,-8.31227 6.63066,-0.33718 8.60105,-0.62764 7.65645,-1.1287 -0.69956,-0.37108 -2.06778,-1.41277 -3.0405,-2.31487 l -1.76856,-1.64019 -14.21013,0.67534 c -7.81558,0.37143 -23.19816,1.74035 -34.18351,3.04205 -38.21628,4.52842 -76.22856,6.24528 -91.95216,4.15312 -14.0851,-1.87414 -24.0221,-5.51462 -32.54885,-11.92448 -7.88113,-5.92452 -12.859041,-14.45354 -14.647151,-25.09607 -0.27552,-1.63981 -0.89293,-3.58721 -1.37204,-4.32756 -1.68815,-2.60864 -7.49998,-18.02909 -7.95753,-21.11361 -0.41769,-2.81574 -0.28743,-3.29887 1.32383,-4.91014 1.55552,-1.55551 2.15576,-1.73657 4.63184,-1.39719 l 2.84474,0.38991 -3.91925,-4.06801 c -4.63452,-4.81046 -7.81106,-11.03998 -9.78114,-19.18183 -2.77321,-11.46102 -3.08038,-16.30748 -3.08038,-48.60188 0,-34.31496 0.49397,-40.23176 4.35921,-52.21489 2.37269,-7.35584 3.98845,-10.09034 8.84985,-14.97735 l 3.74933,-3.76907 -3.40101,0.0279 c -2.93718,0.0241 -3.58667,-0.2184 -4.76245,-1.7782 -1.25214,-1.66109 -1.29597,-2.09871 -0.54591,-5.45037 0.84821,-3.7902 6.36588,-18.10636 7.5216,-19.51555 0.36384,-0.44365 1.22246,-3.37346 1.90804,-6.51069 4.533671,-20.7464 20.862731,-32.51844 49.372341,-35.5938 16.76167,-1.8081 52.5334,0.0593 94.40043,4.92809 10.80227,1.2562 24.9107,2.48621 31.35206,2.73334 l 11.71157,0.44934 2.99524,-2.28631 2.99523,-2.28632 -13.4544,-0.79561 c -14.80462,-0.87544 -35.55758,-3.09263 -57.57041,-6.15066 -14.07398,-1.95517 -18.69807,-2.55307 -40.61252,-5.25121 -19.18336,-2.36189 -21.09539,-2.53751 -28.76754,-2.64223 -8.39546,-0.11458 -19.1214,1.25658 -26.15924,3.3441 -16.72106,4.95969 -30.520051,18.28105 -33.727101,32.5597 -0.64869,2.88814 -1.50833,4.38267 -4.06881,7.07384 -4.23985,4.45625 -5.90596,6.96885 -9.79068,14.76492 -6.12899,12.29998 -9.836049,25.17318 -11.821089,41.05006 -1.004421,8.03367 -1.169433,15.33999 -1.17349,51.95808 -0.0045,44.55624 0.320364,51.47299 3.064875,65.1662 2.424237,12.09528 7.755474,26.54977 12.940364,35.08503 1.35797,2.23546 4.18017,6.05949 6.27154,8.49784 2.75851,3.21618 4.02658,5.34734 4.61862,7.76228 1.72624,7.04122 5.24284,12.94334 11.351781,19.05226 4.98222,4.98222 6.70939,6.22244 12.71801,9.13226 15.89518,7.6976 29.42586,8.93822 59.21652,5.42954 z"
       id="path3265" />
    <path
       style="fill:#000000"
       d="m 691.19081,813.90915 c 5.1795,-1.28415 10.40094,-3.53411 9.93842,-4.28252 -0.56577,-0.91549 -7.05273,-0.69115 -10.56298,0.36529 -3.4994,1.05316 -8.36346,4.00684 -8.36346,5.07867 0,0.75842 2.59901,0.42257 8.98802,-1.16144 z"
       id="path3263" />
    <path
       style="fill:#ffff00"
       d="m 130.38235,778.70721 c -0.56905,-4.1516 -3.74625,-9.73703 -7.28523,-13.57936 -1.63109,-1.77091 -2.2571,-2.89255 -3.27814,-3.45358 -1.94356,-2.13585 -1.69628,-1.88793 -2.73976,-2.90896 -0.24714,-0.28654 -0.74339,-0.65947 -1.84197,-1.58628 -2.60191,-2.19517 -11.34817,-8.17922 -12.72934,-8.70923 -1.52777,-1.0862 -2.35999,-1.40016 -3.816481,-2.07176 l -2.37954,-0.71038 c -5.01717,-1.49782 -5.45129,-1.5263 -7.0726,-0.46398 -2.34325,1.53536 -2.13961,5.04403 0.74783,12.88519 5.94217,16.13662 16.725121,32.58944 23.686101,36.14066 3.2561,1.66114 9.86393,2.076 11.90194,0.14578 1.86662,-1.7679 1.97719,-2.87569 3.29167,-5.43115 0.11061,-0.21504 1.12104,-3.39131 1.17405,-3.63165 0.94595,-2.67835 0.36115,-5.47584 0.34147,-6.6253 z"
       id="path3261"
       inkscape:connector-curvature="0"
       sodipodi:nodetypes="cscccccsssssscc" />
    <path
       style="fill:#000000"
       d="m 298.41005,801.30614 2.12566,-2.25387 -4.43155,0 c -5.60097,0 -10.26513,2.07168 -10.57077,4.6952 -0.24789,2.12773 1.36431,3.64213 5.6167,5.27597 l 3.23638,1.24348 0.94896,-3.35346 c 0.53237,-1.88134 1.8821,-4.34288 3.07462,-5.60732 z"
       id="path3259" />
    <path
       style="fill:#008000"
       d="m 582.96672,803.2134 c 0.78672,-2.8329 0.9368,-17.40831 0.19126,-18.57509 -0.7595,-1.18861 -12.46886,-6.18174 -36.44122,-15.53933 -12.08389,-4.71694 -24.51732,-9.62894 -27.62984,-10.91555 -11.71153,-4.84115 -16.63594,-5.3013 -32.62819,-3.04884 -15.39475,2.16828 -26.25406,3.27279 -36.79099,3.74201 -9.14762,0.40736 -9.80485,0.52325 -9.44249,1.66495 0.75389,2.37528 -0.49068,3.8147 -8.87809,10.26804 -4.65593,3.5823 -10.06047,7.84936 -12.01011,9.48236 l -3.54478,2.96908 0.21589,7.72917 c 0.11874,4.25106 -0.029,8.40329 -0.32831,9.22719 l -0.5442,1.498 17.18868,0.006 c 25.37805,0.01 96.74006,1.85363 127.04223,3.28303 5.85886,0.27637 13.40969,0.54809 16.77963,0.60384 l 6.12716,0.10137 0.69337,-2.49667 z"
       id="path3257" />
    <path
       style="fill:#000000"
       d="m 553.65196,786.15344 c -0.5535,-0.49689 -52.36342,-1.88551 -86.22765,-2.31108 -37.49846,-0.47124 -37.17752,-0.43632 -36.75323,-3.9999 0.1421,-1.19341 2.13027,-3.30409 6.8579,-7.28045 3.66179,-3.07989 7.45376,-6.0126 8.42663,-6.51714 1.00487,-0.52113 5.89326,-1.22315 11.31824,-1.6254 5.25218,-0.38944 17.00496,-1.63388 26.1173,-2.76544 15.90584,-1.97515 16.77055,-2.01744 21.63946,-1.05821 2.78937,0.54954 11.65481,3.6042 19.70098,6.78815 13.11795,5.19089 29.66659,11.32452 42.57135,15.77876 7.43184,2.5652 6.57647,3.23974 -4.10815,3.23974 -5.09599,0 -9.39026,-0.11206 -9.54283,-0.24903 z"
       id="path3255" />
    <path
       style="fill:#00ffff"
       d="m 570.26976,785.4326 c -0.16726,-0.16725 -4.78611,-1.8504 -10.2641,-3.74033 -8.76162,-3.0228 -22.55565,-8.22792 -46.24497,-17.45032 -6.54677,-2.5487 -7.43458,-2.72421 -13.98136,-2.76386 -3.84488,-0.0233 -12.23369,0.63969 -18.64182,1.4733 -6.40812,0.8336 -16.63102,1.92071 -22.71756,2.41581 -6.08654,0.4951 -11.52496,1.16127 -12.0854,1.48038 -2.32937,1.32631 -14.36909,11.68767 -14.75774,12.70046 -0.23638,0.61601 0.0382,1.55883 0.62493,2.14574 0.91452,0.9148 4.67729,1.06627 29.81808,1.20035 28.33235,0.1511 73.0825,1.22119 90.02317,2.15268 11.14464,0.6128 18.61181,0.77084 18.22677,0.38579 z"
       id="path3253" />
    <path
       style="fill:#008000"
       d="m 277.86204,804.37851 c 6.01341,0 6.2602,-0.0589 6.86028,-1.63723 1.15441,-3.03629 5.21884,-4.39849 14.89606,-4.99244 10.31108,-0.63284 12.72492,-0.11167 14.7283,3.18003 l 1.34472,2.20949 7.65646,-0.38146 c 4.21106,-0.20982 26.18455,-0.57915 48.83,-0.82073 34.0761,-0.36354 41.33507,-0.60077 42.11054,-1.37624 0.7074,-0.7074 0.93698,-3.01545 0.93698,-9.42 0,-10.00955 -1.45166,-7.93804 13.73743,-19.60325 5.5416,-4.25595 10.25924,-8.21653 10.48363,-8.80128 0.2244,-0.58477 0.0989,-1.64072 -0.27882,-2.34654 -0.6257,-1.16913 -1.47985,-1.28333 -9.59845,-1.28333 -11.53466,0 -25.43455,-0.95136 -45.30252,-3.10066 -8.78828,-0.95071 -20.1731,-1.76549 -25.2996,-1.81063 l -9.32091,-0.082 -13.31558,3.87917 c -14.42233,4.20158 -57.32536,18.34001 -71.12251,23.43799 -7.20009,2.6604 -8.64362,3.42829 -9.20468,4.8964 -0.36598,0.95765 -0.56792,5.06667 -0.44874,9.13115 0.29231,9.9705 0.21527,9.89167 9.13285,9.34605 3.81521,-0.23344 9.74377,-0.42443 13.17456,-0.42443 z"
       id="path3251" />
    <path
       style="fill:#000000"
       d="m 275.18984,785.29284 c -1.64125,-1.64126 1.97181,-3.32558 16.96332,-7.90787 6.72099,-2.05434 20.00961,-6.27812 29.53025,-9.38619 9.52065,-3.10806 20.68575,-6.52639 24.81134,-7.59628 8.45986,-2.19389 8.71833,-2.18873 36.77324,0.73502 7.50344,0.78196 20.28836,1.50307 30.29294,1.70859 9.52065,0.19559 17.71851,0.48612 18.21747,0.64562 1.47055,0.47009 -0.24675,2.07664 -6.56633,6.14289 -3.11252,2.0027 -7.50382,5.10041 -9.75845,6.88382 -7.15612,5.66048 -7.91175,5.7822 -36.6732,5.908 -19.20958,0.084 -39.40312,0.79546 -65.08635,2.29304 -17.98472,1.04868 -37.73481,1.34278 -38.50423,0.57336 z"
       id="path3249" />
    <path
       style="fill:#00ffff"
       d="m 312.5503,783.78026 c 30.26311,-1.59778 39.80597,-1.93045 68.38745,-2.38398 12.45008,-0.19755 23.78437,-0.53064 25.18731,-0.74017 1.64147,-0.24517 4.13359,-1.58362 6.99068,-3.75452 2.44193,-1.85544 7.43587,-5.3453 11.09766,-7.75524 l 6.65779,-4.38169 -5.99201,-0.15259 c -13.9879,-0.35617 -33.07989,-1.61504 -48.93476,-3.22663 -10.32084,-1.04906 -18.80466,-1.58629 -21.63783,-1.37019 -4.9242,0.3756 -13.73224,2.87444 -36.61785,10.38847 -7.68974,2.52478 -18.17576,5.84634 -23.30227,7.38125 -13.17702,3.94528 -18.60559,6.02222 -17.52728,6.70586 1.34415,0.85218 8.96509,0.70046 35.69111,-0.71057 z"
       id="path3247" />
    <path
       style="fill:#008000"
       d="m 74.726169,768.36124 c -2.73948,-4.9044 -6.98101,-16.26961 -9.003115,-24.12395 -4.061704,-15.77665 -4.359274,-20.64706 -4.359274,-71.35015 0,-50.69573 0.265,-55.04233 4.339297,-71.17475 1.950581,-7.72343 6.900702,-20.78358 9.437322,-24.89891 0.74542,-1.20935 1.2028,-2.35131 1.01641,-2.5377 -0.51666,-0.51665 -8.2574,11.33744 -11.11272,17.01793 -5.175674,10.2967 -9.004427,24.14481 -10.778257,38.98356 -1.222477,10.22653 -1.231553,74.96299 -0.01187,85.18579 2.663233,22.32319 8.807978,38.8893 20.080181,54.13579 2.17045,2.93568 2.37049,2.30425 0.39209,-1.23761 z"
       id="path3243" />
    <path
       style="fill:#008000"
       d="m 236.08642,768.80134 c 0.86214,-0.78135 1.25502,-1.69967 0.9969,-2.33023 -3.98676,-9.73945 -10.02379,-40.58792 -12.386,-63.29103 -1.13177,-10.87735 -1.13302,-49.45224 -0.002,-60.5859 1.81152,-17.832 6.67988,-44.79829 10.0965,-55.92545 0.73083,-2.38015 1.33107,-4.73589 1.33387,-5.23495 0.004,-0.75395 -2.89406,-0.83315 -17.13873,-0.46834 -24.3414,0.62338 -36.40503,1.48746 -52.763,3.77925 -33.54064,4.69914 -58.17074,10.41016 -66.840331,15.49839 -4.06402,2.3852 -10.61335,9.55514 -12.94223,14.16865 -2.59998,5.15052 -4.49583,12.37442 -5.91104,22.52334 -1.61587,11.58789 -1.61587,60.31625 0,71.90414 2.20689,15.82618 5.44373,24.4259 11.51599,30.59597 6.23479,6.3352 12.902301,9.94301 26.532431,14.35677 17.38443,5.6295 55.41479,12.38501 89.58927,15.91416 3.11252,0.32142 10.34729,0.53949 16.07727,0.48459 9.28843,-0.089 10.57247,-0.23966 11.84107,-1.38936 z"
       id="path3241" />
    <path
       style="fill:#000000"
       d="m 730.80467,724.15212 c 0,-2.88504 -0.28109,-4.99333 -0.66578,-4.99333 -0.38468,0 -0.66577,2.10829 -0.66577,4.99333 0,2.88505 0.28109,4.99335 0.66577,4.99335 0.38469,0 0.66578,-2.1083 0.66578,-4.99335 z"
       id="path3237" />
    <path
       style="fill:#000000"
       d="m 730.80467,621.62214 c 0,-2.88504 -0.28109,-4.99334 -0.66578,-4.99334 -0.38468,0 -0.66577,2.1083 -0.66577,4.99334 0,2.88504 0.28109,4.99335 0.66577,4.99335 0.38469,0 0.66578,-2.10831 0.66578,-4.99335 z"
       id="path3235" />
    <path
       style="fill:#ffff00"
       d="m 95.498509,600.30094 3.41769,-1.01494 c 2.874301,-1.39198 3.179611,-1.69104 3.839401,-2.2491 1.22422,-0.46977 12.78204,-8.35697 13.17285,-8.9893 2.86029,-2.87652 7.39438,-7.20116 4.63966,-5.59319 -0.75965,2.42297 5.80176,-5.53062 7.50817,-9.10124 3.79538,-7.94178 2.32245,-19.82931 -2.75552,-22.23897 -3.12523,-1.48301 -8.02879,-1.34456 -11.47561,0.32401 -3.54822,1.71767 -7.16302,5.72236 -12.58012,13.93704 -9.066901,13.74937 -15.528321,30.69703 -13.093451,34.3428 1.15129,1.72383 2.9919,1.87026 7.32693,0.58289 z"
       id="path3233"
       inkscape:connector-curvature="0"
       sodipodi:nodetypes="sccccssssss" />
    <path
       style="fill:#000000"
       d="m 99.703479,597.98699 c -66.468986,302.9168 -33.234493,151.4584 0,0 z"
       id="path3231"
       inkscape:connector-curvature="0"
       sodipodi:nodetypes="cc" />
    <path
       style="fill:#008000"
       d="m 115.37331,593.33412 c 12.52289,-3.51636 39.76788,-8.42508 60.83737,-10.96104 11.41979,-1.3745 30.97274,-2.35461 47.05567,-2.35871 l 13.43382,-0.004 2.48542,-4.16112 c 6.46298,-10.82038 10.47981,-15.13799 14.08902,-15.14398 1.47692,-0.003 1.49801,-0.12491 1.49801,-8.70139 0,-4.78439 0.30257,-9.26427 0.67239,-9.95527 0.80424,-1.50276 1.11659,-1.4323 -14.65376,-3.30574 -40.6383,-4.82763 -82.59581,-6.85465 -97.86953,-4.72819 -19.22557,2.67665 -33.22859,10.00987 -40.37438,21.1436 -2.04485,3.18605 -5.974121,13.34602 -5.388091,13.93206 0.1412,0.1412 2.01904,-2.3377 4.172981,-5.50865 5.88143,-8.65841 9.94325,-12.53177 14.5441,-13.86926 4.40824,-1.28151 8.17658,-0.88891 10.72751,1.11766 5.30494,4.17286 6.15563,15.04542 1.86641,23.85404 -2.08016,4.27196 -11.89194,14.48379 -17.49704,18.21046 -2.00909,1.33569 -3.43535,2.42861 -3.16946,2.42861 0.26589,0 3.6722,-0.89539 7.56956,-1.98975 z"
       id="path3229" />
    <path
       style="fill:#008000"
       d="m 375.61152,590.64681 c 24.63913,-2.59275 34.11747,-3.32485 48.26899,-3.72831 19.61291,-0.55916 19.97162,-1.15967 6.75537,-11.3089 -4.6309,-3.55623 -9.99272,-7.78892 -11.91516,-9.40599 l -3.49534,-2.9401 0,-8.55609 c 0,-6.4718 -0.2285,-8.78459 -0.93801,-9.49411 -0.7782,-0.77819 -8.3496,-1.01473 -44.44075,-1.38835 -23.92651,-0.24769 -45.89956,-0.61335 -48.82899,-0.81257 l -5.32623,-0.36222 -1.34472,2.20236 c -2.01965,3.30773 -4.4861,3.84267 -14.80483,3.21094 -9.49062,-0.58104 -13.26163,-1.75485 -14.46745,-4.50333 -0.82073,-1.87069 -1.73477,-2.00867 -16.09915,-2.43033 -9.9456,-0.29194 -11.54505,-0.19683 -12.31691,0.73247 -1.15647,1.39235 -1.26472,17.72803 -0.12504,18.86951 2.3564,2.36017 60.9904,21.92242 88.45238,29.51066 7.57685,2.09362 13.7927,2.17569 30.62584,0.40436 z"
       id="path3227" />
    <path
       style="fill:#000000"
       d="m 344.67234,584.98561 c -4.56649,-1.29332 -15.05251,-4.56684 -23.30228,-7.27447 -8.24976,-2.70763 -20.54218,-6.61155 -27.31648,-8.67538 -17.55158,-5.34719 -22.08399,-7.61021 -17.53068,-8.75302 2.27095,-0.56997 25.21856,0.0982 49.1552,1.43123 10.25299,0.57099 32.72303,1.27559 49.93342,1.56576 35.14924,0.59265 32.34728,0.16635 39.88572,6.06839 2.23064,1.74642 6.60231,4.81365 9.71483,6.81604 6.33932,4.07831 8.0281,5.65164 6.56633,6.11747 -0.49896,0.159 -8.39723,0.44344 -17.55169,0.63208 -10.43736,0.21507 -22.85159,0.96805 -33.28896,2.01913 -27.50974,2.77029 -26.6747,2.76906 -36.26541,0.0528 z"
       id="path3225" />
    <path
       style="fill:#00ffff"
       d="m 377.27598,584.32143 c 14.0415,-1.42613 31.82599,-2.57525 48.84297,-3.15591 l 4.56868,-0.1559 -8.56335,-5.85805 c -4.70984,-3.22193 -9.86191,-6.81713 -11.44906,-7.98935 -2.87742,-2.12519 -2.91185,-2.13183 -11.98402,-2.31116 -39.24504,-0.77579 -65.03615,-1.60803 -89.3247,-2.88233 -15.69185,-0.82327 -29.48137,-1.26018 -30.95766,-0.98087 -2.65933,0.50314 -2.66035,0.50453 -0.99866,1.37032 0.91486,0.47667 6.15738,2.27117 11.65006,3.98777 5.49268,1.7166 17.92611,5.68566 27.62984,8.82014 28.15123,9.09333 34.30953,10.77118 39.61385,10.79293 2.56325,0.0105 12.00067,-0.7264 20.97205,-1.63759 z"
       id="path3223" />
    <path
       style="fill:#008000"
       d="m 509.56789,591.05702 c 1.90502,-0.50718 9.84442,-3.48025 17.64314,-6.60682 7.79872,-3.12656 20.74545,-8.26054 28.77051,-11.40884 8.02505,-3.14828 17.38152,-6.95281 20.79215,-8.45448 7.32178,-3.22372 7.17436,-2.90181 6.79542,-14.83902 -0.18963,-5.97382 -0.48217,-7.88643 -1.33693,-8.7412 -0.99755,-0.99754 -2.58477,-1.02825 -17.97191,-0.34762 -40.06846,1.77236 -101.95403,3.38962 -129.93861,3.39568 l -19.18601,0.004 0.5442,1.49801 c 0.29932,0.8239 0.46581,4.91596 0.37001,9.09347 -0.14843,6.4724 -6.7e-4,7.78939 0.99867,8.9069 0.64507,0.72128 6.03386,5.05798 11.97508,9.63712 5.94123,4.57914 10.97973,8.88495 11.19667,9.56847 0.21694,0.68353 0.21899,1.79558 0.005,2.47122 -0.36229,1.14146 0.28281,1.26003 9.10959,1.67448 9.68196,0.4546 28.25888,2.4012 38.46088,4.03017 7.54001,1.20393 17.49181,1.258 21.77258,0.11831 z"
       id="path3221" />
    <path
       style="fill:#000000"
       d="m 486.79664,584.66737 c -4.76032,-0.70141 -15.24634,-1.8872 -23.30227,-2.6351 -8.05593,-0.74789 -15.40342,-1.5176 -16.32776,-1.71047 -0.92434,-0.19285 -4.96896,-3.12182 -8.98802,-6.50881 -5.29437,-4.46173 -7.36253,-6.62698 -7.50751,-7.85999 -0.42561,-3.61979 -1.16883,-3.54716 41.41366,-4.04767 21.64015,-0.25436 47.13534,-0.77807 56.65598,-1.16382 39.20799,-1.58857 43.81553,-1.65782 43.48079,-0.65357 -0.17111,0.51331 -1.33586,1.304 -2.58834,1.7571 -1.2525,0.4531 -7.07087,2.5078 -12.92973,4.56599 -5.85885,2.05819 -17.54327,6.44345 -25.96538,9.74502 -27.02756,10.59517 -28.22479,10.82706 -43.94142,8.51132 z"
       id="path3219" />
    <path
       style="fill:#00ffff"
       d="m 507.4358,583.76133 c 1.83088,-0.49184 10.2197,-3.60485 18.6418,-6.91778 13.6813,-5.38172 34.9504,-13.24121 41.82225,-15.45443 1.39771,-0.45016 2.40047,-0.95929 2.22836,-1.1314 -0.17211,-0.1721 -6.70849,0.009 -14.5253,0.40181 -24.0523,1.20959 -52.04933,2.03556 -69.13916,2.03975 -26.76153,0.006 -53.18512,0.79683 -54.31705,1.62452 -0.61419,0.4491 -0.83949,1.19987 -0.57046,1.90094 0.59084,1.53971 12.7341,11.69768 15.27366,12.77658 1.09853,0.4667 6.79094,1.19811 12.64979,1.62538 9.91016,0.72271 31.11364,3.12026 32.62318,3.68881 1.68172,0.63342 12.3261,0.24819 15.31293,-0.55418 z"
       id="path3217" />
    <path
       style="fill:#000000"
       d="m 300.71137,547.01189 c 0,-0.20673 -0.89796,-1.13147 -1.99549,-2.05497 -1.30319,-1.09656 -2.359,-2.9295 -3.04325,-5.28325 -0.59824,-2.05786 -1.43227,-3.60415 -1.94398,-3.60415 -1.47858,0 -6.6209,2.40442 -7.55851,3.53417 -1.24703,1.50258 -0.7113,3.78632 1.22565,5.22476 2.00403,1.48827 13.31558,3.34308 13.31558,2.18344 z"
       id="path3213" />
    <path
       style="fill:#000000"
       d="m 312.24979,546.02592 c 2.5303,-1.99033 3.10087,-5.07783 3.10501,-16.80202 0.005,-13.20021 -0.58785,-15.1251 -4.65583,-15.1251 -3.58681,0 -5.909,1.2742 -9.25979,5.08091 -5.50184,6.25041 -7.18873,18.52404 -3.25482,23.68167 0.97214,1.27454 2.76231,2.80756 3.97817,3.4067 3.16117,1.55777 7.94502,1.44293 10.08726,-0.24216 z"
       id="path3211" />
    <path
       style="fill:#000000"
       d="m 701.51039,536.14032 c 0,-0.77453 -7.38588,-3.68861 -11.65113,-4.59691 -5.8309,-1.24171 -7.65647,-1.44736 -7.65647,-0.8625 0,1.02016 4.74674,4.22178 7.56778,5.10439 3.15347,0.98659 11.73982,1.24625 11.73982,0.35502 z"
       id="path3209" />
    <path
       style="fill:#000000"
       d="m 148.9638,468.1419 c -24.00679,-5.03551 -39.99681,-23.58736 -39.99681,-46.40486 0,-6.18324 -0.0192,-6.25757 -1.498,-5.81829 -2.06692,0.61398 -2.92307,1.87514 -3.43152,5.0548 -0.97062,6.06989 -3.77285,8.3263 -9.640271,7.76252 -3.70157,-0.35568 -7.2097,-2.52507 -7.78409,-4.81361 -0.3437,-1.36944 -0.91336,-1.59086 -5.16138,-2.00618 -16.380619,-1.60152 -27.117823,-11.56149 -29.194316,-27.08103 -2.36049,-17.64208 9.113383,-44.33982 26.461956,-61.5725 3.05779,-3.03735 8.75733,-7.61178 13.01671,-10.44714 20.744851,-13.80933 44.984681,-21.3699 101.824371,-31.75974 24.5704,-4.49129 35.40951,-7.21416 40.86698,-10.26615 4.5017,-2.5175 9.1194,-5.77145 34.65944,-24.42346 43.0176,-31.41595 58.02545,-39.15635 82.98065,-42.79783 32.87909,-4.79773 117.80095,-5.9815 148.42482,-2.06896 16.31036,2.08384 26.66469,5.99342 43.22841,16.32217 16.38349,10.21636 27.28089,18.29823 56.31662,41.76626 5.09444,4.11757 10.46103,8.07325 11.92574,8.7904 2.6671,1.30585 9.03989,2.2873 19.64049,3.02475 18.80558,1.30824 38.92236,4.07101 53.51551,7.34964 17.648,3.96494 26.43789,8.46595 29.55513,15.13419 1.49148,3.19044 2.22044,7.29728 4.16372,23.45713 1.73795,14.45241 2.63295,18.2017 6.24108,26.14505 4.2253,9.30197 5.39274,15.10134 5.39274,26.78815 0,8.40672 -0.20232,10.23976 -1.56625,14.1898 -3.52869,10.2193 -10.03721,16.64326 -23.73335,23.42496 -11.46299,5.67594 -22.61559,8.324 -35.05753,8.324 -4.62297,0 -5.17623,0.13824 -5.57444,1.39292 -0.50805,1.60071 -5.09354,3.89712 -7.82484,3.91869 -4.61665,0.0364 -8.26016,-3.15413 -9.77435,-8.55932 -0.34651,-1.23698 -1.91689,-3.48398 -3.48971,-4.99334 l -2.85969,-2.74431 0.23618,7.80984 c 0.29182,9.64952 -0.93064,15.73049 -4.66031,23.18215 -4.78045,9.55103 -13.53789,16.68687 -25.0921,20.44582 -7.54396,2.45429 -20.12832,2.84552 -28.40656,0.88312 -21.76482,-5.15944 -36.86166,-22.25483 -38.10953,-43.15448 l -0.36698,-6.14648 -2.56601,1.44217 c -1.4113,0.7932 -2.56601,1.8513 -2.56601,2.35132 0,1.28732 -1.90685,4.90122 -3.51325,6.65838 -2.63691,2.88438 -8.85282,2.7814 -12.40253,-0.20547 -1.08548,-0.91337 -2.068,-2.32456 -2.18338,-3.13595 -0.20074,-1.41177 -0.5824,-1.49311 -8.86489,-1.88932 -4.76033,-0.22772 -28.87818,-0.79777 -53.59523,-1.26678 -45.67991,-0.86678 -88.44907,-0.49181 -162.4501,1.42424 -15.1964,0.39346 -36.52185,0.51752 -47.38986,0.27567 -19.66759,-0.43768 -19.76355,-0.43313 -20.51519,0.97132 -1.15048,2.14969 -4.69213,3.99795 -7.66088,3.99795 -3.54889,0 -6.47596,-1.89905 -8.15367,-5.29001 -0.85129,-1.72061 -2.47841,-3.48037 -4.26757,-4.61546 l -2.89168,-1.83455 0.22877,5.76749 c 0.49782,12.5506 -3.55749,24.05117 -11.40742,32.35063 -5.1806,5.47729 -9.76198,8.36498 -17.60883,11.09905 -5.25687,1.83162 -6.75372,2.05096 -15.15394,2.22046 -5.1265,0.10346 -10.64659,-0.09 -12.26685,-0.42982 z"
       id="path3207" />
    <path
       style="fill:#008000"
       d="m 172.71995,465.43412 c 7.86689,-1.98096 13.18101,-4.96917 18.95961,-10.66127 8.19126,-8.06867 11.80494,-17.31989 11.80494,-30.22132 0,-8.23662 -1.39425,-14.19581 -5.06252,-21.63783 -2.62438,-5.32425 -4.03034,-7.22023 -8.8867,-11.98402 -9.74526,-9.55952 -20.40651,-13.98137 -33.70962,-13.98137 -14.21626,0 -29.00087,7.36572 -36.26979,18.06967 -3.58967,5.28602 -6.92309,12.59385 -7.88073,17.27688 -1.02096,4.99264 -1.0408,14.11124 -0.0413,18.9614 5.20533,25.25852 33.54297,41.11352 61.08609,34.17786 z"
       id="path3205" />
    <path
       style="fill:#000000"
       d="m 148.01157,455.8314 c -15.89014,-4.02667 -27.06055,-18.03811 -27.06055,-33.943 0,-14.98802 8.92766,-27.46493 23.48564,-32.82254 12.61673,-4.64318 30.77524,-0.18633 38.71416,9.50206 5.33141,6.50629 7.707,13.86197 7.707,23.8636 0,16.49901 -7.17475,27.57775 -21.02579,32.46654 -5.23216,1.8467 -16.34099,2.32187 -21.82046,0.93334 z"
       id="path3203" />
    <path
       style="fill:#000000"
       d="m 165.73784,454.53203 c 11.92933,-2.52787 20.84048,-11.62185 23.10886,-23.58292 0.86347,-4.55302 0.873,-12.85228 0.02,-17.3504 -1.5233,-8.0323 -6.6445,-15.37057 -14.16615,-20.29894 -0.99464,-0.65172 -2.27572,-1.00563 -2.84683,-0.78648 -0.57112,0.21916 -0.86463,0.11733 -0.65227,-0.22628 0.64584,-1.04499 -2.16616,-2.10001 -8.21238,-3.08116 -7.8268,-1.2701 -15.42832,-0.50844 -21.06597,2.11075 -10.89092,5.05982 -18.61227,16.2686 -19.45468,28.24158 -0.44681,6.3506 0.60271,11.38179 3.64746,17.48508 6.90962,13.85051 23.08939,20.99212 39.62201,17.48877 z"
       id="path3201" />
    <path
       style="fill:#000000"
       d="m 147.5069,453.21273 c -5.5306,-1.52505 -9.50356,-3.93805 -14.29192,-8.68028 -6.88235,-6.81606 -9.55961,-13.14645 -9.57668,-22.64405 -0.0231,-12.90188 6.79352,-23.29377 19.12849,-29.16088 5.73974,-2.73011 5.90767,-2.7652 13.13763,-2.7456 7.18832,0.0195 7.43179,0.071 13.18387,2.78713 12.17878,5.75088 19.7722,17.10301 19.7722,29.55936 0,15.20667 -9.42053,27.64888 -23.32938,30.81238 -5.39267,1.22653 -13.71658,1.25976 -18.02421,0.072 z"
       id="path3199" />
    <path
       style="fill:#ffffff"
       d="m 168.9572,450.90546 c 12.60062,-4.76352 19.05304,-15.23041 18.46189,-29.94827 -0.23033,-5.73466 -0.51787,-6.95637 -2.73705,-11.62933 -3.24271,-6.82823 -8.51228,-12.08091 -15.48359,-15.43398 -4.42912,-2.13032 -5.84068,-2.4714 -11.50161,-2.77918 -8.50165,-0.46222 -14.28523,1.15716 -20.24386,5.6682 -7.25777,5.49459 -11.17552,12.10494 -12.62518,21.3022 -2.13931,13.57278 6.87232,28.40538 20.11968,33.11578 6.7607,2.40392 17.20942,2.27535 24.00972,-0.29542 z"
       id="path3197" />
    <path
       style="fill:#000000"
       d="m 144.91906,447.10704 c -7.10309,-2.52834 -13.43221,-9.69372 -12.35465,-13.98706 0.40021,-1.59455 3.56246,-2.8704 10.5193,-4.24416 4.36981,-0.86289 5.70267,-0.59392 7.72522,1.559 1.35371,1.44095 2.68023,7.78699 2.7447,13.1306 0.0468,3.88177 -3.54267,5.35407 -8.63457,3.54162 z"
       id="path3195" />
    <path
       style="fill:#000000"
       d="m 151.51084,446.24422 c 0.74806,-0.47362 0.84,-1.82236 0.4645,-6.81404 -0.51255,-6.81357 -1.44012,-8.9543 -4.1776,-9.64136 -2.40742,-0.60423 -12.88524,1.79854 -13.72906,3.14834 -1.05819,1.69272 0.0245,4.43762 3.05004,7.73329 4.31372,4.69874 11.4246,7.45264 14.39212,5.57377 z"
       id="path3193" />
    <path
       style="fill:#000000"
       d="m 159.75256,447.50753 c -2.0759,-0.83532 -2.46317,-3.1914 -1.61039,-9.79761 0.76005,-5.88788 2.03236,-8.30025 4.84917,-9.19427 1.58348,-0.50257 12.23915,1.49821 14.66785,2.75414 5.52171,2.85538 -1.97091,13.04466 -11.72248,15.94153 -3.71493,1.10359 -4.12842,1.12339 -6.18415,0.29621 z"
       id="path3191" />
    <path
       style="fill:#000000"
       d="m 169.07343,444.92874 c 5.41984,-2.6237 10.35411,-8.92711 9.29608,-11.87553 -0.33384,-0.93031 -3.26419,-1.84589 -9.32496,-2.91356 -7.77325,-1.36934 -9.25327,0.0244 -9.91423,9.33605 -0.34976,4.92756 -0.24923,6.30095 0.49817,6.8053 1.40012,0.9448 6.08559,0.27397 9.44494,-1.35226 z"
       id="path3189" />
    <path
       style="fill:#000000"
       d="m 154.537,432.81575 c -0.68609,-1.11013 0.85701,-2.38316 1.77545,-1.46471 0.76826,0.76825 0.28743,2.1885 -0.74093,2.1885 -0.32295,0 -0.78849,-0.32571 -1.03452,-0.72379 z"
       id="path3187" />
    <path
       style="fill:#000000"
       d="m 152.95061,432.12306 c -0.0479,-1.23151 1.76602,-2.98923 2.41508,-2.34018 0.23527,0.23527 0.0685,0.42776 -0.37044,0.42776 -0.43901,0 -1.06915,0.6741 -1.40031,1.498 -0.40747,1.01373 -0.61577,1.1477 -0.64433,0.41442 z"
       id="path3185" />
    <path
       style="fill:#000000"
       d="m 157.06065,431.036 c -0.77733,-1.6582 -0.75886,-1.71198 0.24373,-0.70939 0.59664,0.59665 0.97514,1.40405 0.84109,1.79422 -0.13404,0.39017 -0.62222,-0.098 -1.08482,-1.08483 z"
       id="path3183" />
    <path
       style="fill:#000000"
       d="m 153.17449,427.92292 c -3.41644,-1.47821 -4.07904,-5.94386 -1.29501,-8.72789 4.75204,-4.75205 12.04234,2.28873 7.52027,7.26289 -1.95762,2.15336 -3.69135,2.56136 -6.22526,1.465 z"
       id="path3181" />
    <path
       style="fill:#000000"
       d="m 159.19556,426.06783 c 1.49077,-2.12836 1.27868,-4.33058 -0.59777,-6.20702 -1.99643,-1.99643 -3.62878,-2.0664 -5.93248,-0.25431 -2.05928,1.61983 -2.3703,4.82521 -0.65238,6.72349 1.62536,1.79601 5.84901,1.64185 7.18263,-0.26216 z"
       id="path3179" />
    <path
       style="fill:#000000"
       d="m 144.9456,426.58084 c -1.76861,-2.13105 0.82905,-5.40464 3.13591,-3.95188 2.30514,1.45166 1.48391,4.91857 -1.16511,4.91857 -0.64268,0 -1.52954,-0.43501 -1.9708,-0.96669 z"
       id="path3177" />
    <path
       style="fill:#000000"
       d="m 148.58085,424.88441 c 0,-1.22019 -0.40063,-1.72133 -1.50098,-1.87759 -1.63589,-0.2323 -2.56503,1.19548 -1.90213,2.92296 0.24062,0.62703 1.00181,0.96006 1.90213,0.83222 1.10035,-0.15625 1.50098,-0.6574 1.50098,-1.87759 z"
       id="path3175" />
    <path
       style="fill:#000000"
       d="m 145.88188,425.49218 c -0.6861,-1.11014 0.85699,-2.38316 1.77544,-1.46472 0.76826,0.76826 0.28743,2.18851 -0.74092,2.18851 -0.32296,0 -0.78849,-0.32571 -1.03452,-0.72379 z"
       id="path3173" />
    <path
       style="fill:#000000"
       d="m 147.58217,424.88441 c 0,-0.36617 -0.29959,-0.66578 -0.66577,-0.66578 -0.36618,0 -0.66578,0.29961 -0.66578,0.66578 0,0.36618 0.2996,0.66578 0.66578,0.66578 0.36618,0 0.66577,-0.2996 0.66577,-0.66578 z"
       id="path3171" />
    <path
       style="fill:#000000"
       d="m 162.25586,426.58084 c -1.76861,-2.13105 0.82905,-5.40464 3.13591,-3.95188 2.30515,1.45166 1.48391,4.91857 -1.16511,4.91857 -0.64269,0 -1.52955,-0.43501 -1.9708,-0.96669 z"
       id="path3169" />
    <path
       style="fill:#000000"
       d="m 165.8911,424.88441 c 0,-1.22019 -0.40063,-1.72133 -1.50098,-1.87759 -1.63589,-0.2323 -2.56501,1.19548 -1.90212,2.92296 0.24061,0.62703 1.0018,0.96006 1.90212,0.83222 1.10035,-0.15625 1.50098,-0.6574 1.50098,-1.87759 z"
       id="path3167" />
    <path
       style="fill:#000000"
       d="m 163.19213,425.49218 c -0.6861,-1.11014 0.857,-2.38316 1.77545,-1.46472 0.76826,0.76826 0.28743,2.18851 -0.74092,2.18851 -0.32296,0 -0.78849,-0.32571 -1.03453,-0.72379 z"
       id="path3165" />
    <path
       style="fill:#000000"
       d="m 164.89244,424.88441 c 0,-0.36617 -0.29961,-0.66578 -0.66578,-0.66578 -0.36619,0 -0.66578,0.29961 -0.66578,0.66578 0,0.36618 0.29959,0.66578 0.66578,0.66578 0.36617,0 0.66578,-0.2996 0.66578,-0.66578 z"
       id="path3163" />
    <path
       style="fill:#000000"
       d="m 129.16171,424.38725 c -2.98614,-7.14682 3.2114,-21.35299 9.02031,-20.67658 1.36616,0.15908 2.47182,1.38477 5.23325,5.8013 1.92562,3.07979 3.50113,6.28099 3.50113,7.11379 0,3.63705 -1.19007,4.94983 -6.92227,7.63603 -3.07497,1.44098 -6.53569,2.61996 -7.6905,2.61996 -1.79663,0 -2.25007,-0.36 -3.14192,-2.4945 z"
       id="path3161" />
    <path
       style="fill:#000000"
       d="m 136.81616,424.44755 c 4.62812,-1.84287 7.42638,-3.38144 8.25915,-4.54111 1.20815,-1.68241 0.35698,-4.97425 -2.54862,-9.85666 -3.41733,-5.74229 -5.00389,-6.45815 -7.89833,-3.56371 -4.21416,4.21416 -6.5159,14.35508 -4.09639,18.04771 0.60621,0.9252 1.2689,1.68218 1.47264,1.68218 0.20373,0 2.36894,-0.79579 4.81155,-1.76841 z"
       id="path3159" />
    <path
       style="fill:#000000"
       d="m 171.88312,424.51355 c -8.73224,-3.73752 -9.54434,-6.14217 -4.69949,-13.91541 1.62633,-2.60936 3.56166,-5.29152 4.30073,-5.96036 2.72662,-2.46757 6.9206,0.20803 10.00672,6.3839 1.66265,3.32727 2.04317,4.90931 2.04317,8.49472 0,7.98101 -2.33743,8.98352 -11.65113,4.99715 z"
       id="path3157" />
    <path
       style="fill:#000000"
       d="m 181.13031,425.19592 c 1.50878,-1.50877 1.9646,-5.09633 1.13754,-8.95282 -0.91742,-4.27773 -2.12753,-6.63419 -4.75739,-9.26405 -3.75886,-3.75886 -5.73907,-2.6361 -10.54742,5.98025 -1.81831,3.25836 -1.98747,3.97555 -1.36133,5.77171 0.7559,2.1684 2.08077,2.98492 9.43608,5.81554 5.02934,1.93549 4.82788,1.91401 6.09252,0.64937 z"
       id="path3155" />
    <path
       style="fill:#000000"
       d="m 160.78714,417.64332 c 0.715,-0.45325 0.68257,-0.64178 -0.16644,-0.96758 -0.57998,-0.22258 -1.0545,-0.88115 -1.0545,-1.46352 0,-0.58237 -0.2996,-0.8737 -0.66577,-0.64739 -1.08372,0.66978 -0.75885,-0.0944 0.46068,-1.08359 0.76543,-0.62088 0.96622,-0.64701 0.62649,-0.0815 -0.31183,0.51903 -0.12181,0.83223 0.50489,0.83223 0.55269,0 1.31026,0.52429 1.6835,1.1651 0.48691,0.83598 0.68433,0.89868 0.69886,0.22194 0.0112,-0.51876 0.21815,-0.7453 0.46002,-0.50342 0.54246,0.54245 -1.70302,3.11489 -2.70674,3.10086 -0.40725,-0.006 -0.33706,-0.25868 0.15901,-0.57313 z"
       id="path3153" />
    <path
       style="fill:#000000"
       d="m 161.23065,415.56351 c 0.22631,-0.36619 0.0942,-0.66578 -0.2936,-0.66578 -0.38779,0 -0.70507,0.29959 -0.70507,0.66578 0,0.36617 0.13212,0.66578 0.2936,0.66578 0.16148,0 0.47875,-0.29961 0.70507,-0.66578 z"
       id="path3151" />
    <path
       style="fill:#000000"
       d="m 148.38111,416.7619 c -1.11915,-1.11914 -0.99524,-2.21837 0.36618,-3.24855 0.99119,-0.75003 1.04089,-0.74232 0.33288,0.0516 -0.45771,0.5133 -0.8231,1.39765 -0.81197,1.96523 0.0166,0.84948 0.14023,0.82594 0.69886,-0.13316 0.37324,-0.64081 1.1351,-1.16511 1.69302,-1.16511 0.61345,0 0.91978,0.46052 0.77501,1.16511 -0.14416,0.70159 -0.71989,1.08118 -1.44719,0.95415 -0.72207,-0.12614 -1.03124,0.0747 -0.7688,0.49932 0.58547,0.94731 0.15212,0.90149 -0.83799,-0.0886 z"
       id="path3149" />
    <path
       style="fill:#000000"
       d="m 151.95254,416.6999 c 0.25002,-0.6566 0.6223,-1.02611 0.82728,-0.82112 0.205,0.20498 4.4e-4,0.7422 -0.45457,1.19382 -0.65754,0.65264 -0.73401,0.57617 -0.37271,-0.3727 z"
       id="path3147" />
    <path
       style="fill:#000000"
       d="m 151.71704,413.83191 c -0.47215,-0.51237 -0.56474,-0.93154 -0.20573,-0.93154 0.69137,0 1.69223,1.26645 1.29732,1.64159 -0.12821,0.1218 -0.61942,-0.19774 -1.09159,-0.71007 z"
       id="path3145" />
    <path
       style="fill:#000000"
       d="m 161.56354,413.56615 c -0.60006,-0.38779 -0.68218,-0.64946 -0.20574,-0.65559 0.43611,-0.005 0.97809,0.28941 1.2044,0.65559 0.51086,0.82658 0.28038,0.82658 -0.99866,0 z"
       id="path3143" />
    <path
       style="fill:#000000"
       d="m 153.60314,412.31149 c -2.24696,-0.6267 -10.01564,-9.62945 -10.01564,-11.60665 0,-1.74196 2.14777,-4.04052 4.66045,-4.98765 7.53789,-2.84136 19.3076,0.12051 19.3076,4.85878 0,2.06917 -7.47859,10.68452 -10.0541,11.58235 -1.17075,0.40812 -2.15882,0.71218 -2.19572,0.67569 -0.0369,-0.0365 -0.80307,-0.27164 -1.70259,-0.52252 z"
       id="path3141" />
    <path
       style="fill:#000000"
       d="m 160.68683,408.41177 c 1.68755,-1.73636 3.812,-4.28087 4.72101,-5.65446 1.43143,-2.16306 1.52986,-2.64588 0.73509,-3.60626 -3.6412,-4.40002 -15.55169,-4.7538 -20.37474,-0.60518 -1.6293,1.40146 -1.72906,1.72366 -0.96952,3.13145 0.46566,0.86309 2.58929,3.44176 4.71918,5.73037 5.03636,5.41169 6.7367,5.56456 11.16898,1.00408 z"
       id="path3139" />
    <path
       style="fill:#008000"
       d="m 606.96977,465.83671 c 11.74748,-2.36025 22.61651,-10.46168 27.85705,-20.76376 6.04814,-11.8897 5.61863,-30.77555 -0.97278,-42.77381 -3.60033,-6.55366 -7.14101,-10.82794 -12.93598,-15.61621 -2.78147,-2.29828 -10.89791,-6.28426 -15.94563,-7.8309 -3.94751,-1.20954 -6.59694,-1.53425 -12.6498,-1.55041 -11.26961,-0.0301 -16.53575,1.36095 -24.90858,6.5795 -12.42238,7.74254 -20.06628,20.84725 -20.85945,35.76153 -0.68379,12.85753 3.51047,23.68746 12.7533,32.93012 12.37025,12.36998 29.0323,17.00691 47.66187,13.26394 z"
       id="path3137" />
    <path
       style="fill:#000000"
       d="m 584.66617,456.06264 c -5.41829,-1.02578 -12.56567,-4.86833 -17.30929,-9.30575 -19.06864,-17.83778 -11.8267,-49.06385 13.42406,-57.88238 5.63182,-1.96684 16.58577,-1.91932 22.64862,0.0983 15.48683,5.15368 23.1441,16.27466 23.12222,33.58138 -0.0142,11.28958 -2.9271,19.08403 -9.52447,25.48657 -7.3157,7.09964 -20.27032,10.31092 -32.36114,8.02191 z"
       id="path3135" />
    <path
       style="fill:#000000"
       d="m 601.31065,454.50366 c 14.18562,-2.99345 22.49209,-13.03758 23.94703,-28.9566 1.00245,-10.96813 -2.96568,-22.21469 -10.07313,-28.54946 -4.13219,-3.68297 -10.11414,-6.84385 -13.20812,-6.97922 -1.09854,-0.048 -2.17366,-0.32638 -2.38915,-0.61847 -0.50025,-0.67811 -12.08855,-0.86024 -15.54847,-0.24437 -7.03143,1.25157 -16.49512,8.05314 -21.02305,15.10931 -4.39092,6.84266 -6.05706,15.95711 -4.37492,23.9327 1.42238,6.74404 3.79566,11.31835 8.45826,16.3027 8.52018,9.10809 21.06782,12.777 34.21155,10.00341 z"
       id="path3133" />
    <path
       style="fill:#000000"
       d="m 583.17786,453.15231 c -5.62991,-1.5162 -10.18314,-4.1961 -14.52167,-8.54706 -12.56549,-12.60147 -12.69317,-32.40961 -0.29062,-45.08536 6.47605,-6.61868 16.6528,-10.43801 25.78267,-9.6762 2.65189,0.22127 5.3483,0.66444 5.99201,0.9848 5.99122,2.98177 10.36513,4.71244 10.96802,4.33985 0.40023,-0.24736 0.54459,-0.15348 0.3208,0.20862 -0.22379,0.36209 0.95523,1.98129 2.62005,3.5982 7.0219,6.81987 10.19899,14.05421 10.20896,23.24612 0.0174,15.99324 -8.67412,27.47369 -23.43401,30.95364 -5.19258,1.22426 -13.05382,1.21418 -17.64621,-0.0227 z"
       id="path3131" />
    <path
       style="fill:#ffffff"
       d="m 600.52667,452.13407 c 8.35559,-1.62691 15.69444,-7.22837 19.41473,-14.81851 8.00628,-16.33446 1.56826,-35.10307 -14.82863,-43.22952 l -5.69701,-2.8235 -8.04058,0.002 c -7.3978,0.002 -8.35736,0.14997 -12.00344,1.85381 -5.73184,2.67854 -10.62954,6.71682 -13.67199,11.27294 -10.6312,15.92033 -4.87326,37.40699 12.19657,45.51342 6.92493,3.28863 13.74153,3.96018 22.63035,2.22944 z"
       id="path3129" />
    <path
       style="fill:#000000"
       d="m 579.40638,446.54009 c -6.33457,-2.60426 -11.331,-8.30943 -10.92884,-12.47911 0.2568,-2.66263 1.51862,-3.3445 8.97148,-4.848 5.01292,-1.01129 5.59382,-1.01263 7.51862,-0.0173 2.67768,1.38468 3.31971,3.18261 3.81184,10.67449 0.38678,5.88815 0.34377,6.1529 -1.17182,7.21447 -2.09768,1.46927 -3.53494,1.37384 -8.20128,-0.54458 z"
       id="path3127" />
    <path
       style="fill:#000000"
       d="m 587.53972,445.50234 c 0.51407,-1.38967 -0.067,-10.74468 -0.81343,-13.09657 -0.87628,-2.76091 -3.27566,-3.25333 -9.55461,-1.96087 -8.78603,1.80851 -9.26321,2.29974 -6.84273,7.04428 2.52591,4.95119 9.12664,9.18352 14.52511,9.31336 1.6174,0.0389 2.31528,-0.29896 2.68566,-1.3002 z"
       id="path3125" />
    <path
       style="fill:#000000"
       d="m 595.20998,447.43076 c -0.79212,-0.40015 -1.58136,-1.26727 -1.75385,-1.92689 -0.4546,-1.73837 0.72896,-12.46563 1.5432,-13.98707 1.12313,-2.09858 4.47305,-3.48214 7.22442,-2.98378 12.29985,2.22791 14.32563,3.50243 12.50245,7.86595 -2.95651,7.07591 -14.46719,13.58247 -19.51622,11.03179 z"
       id="path3123" />
    <path
       style="fill:#000000"
       d="m 605.50239,444.42662 c 5.40829,-2.76589 10.2854,-9.65896 8.26418,-11.68018 -0.38256,-0.38256 -3.04205,-1.2571 -5.90997,-1.94339 -10.599,-2.53636 -11.93267,-1.76579 -13.01706,7.52094 -0.6234,5.33882 -0.59418,6.64032 0.16974,7.5608 1.30292,1.56993 5.79191,0.94612 10.49311,-1.45817 z"
       id="path3121" />
    <path
       style="fill:#000000"
       d="m 589.57458,433.74461 c -0.70821,-0.8731 -0.71653,-1.00783 -0.0371,-0.59897 0.61624,0.37076 0.81406,0.16864 0.66577,-0.68029 -0.12703,-0.72729 0.25256,-1.30303 0.95414,-1.44718 0.7046,-0.14477 1.16512,0.16156 1.16512,0.77501 0,0.55791 -0.52431,1.31978 -1.16512,1.69302 -0.9591,0.55862 -0.98264,0.68219 -0.13315,0.69885 0.56757,0.0111 1.45193,-0.35425 1.96523,-0.81197 0.79395,-0.708 0.80167,-0.65831 0.0516,0.33289 -1.11179,1.46926 -2.29549,1.48245 -3.46665,0.0386 z"
       id="path3119" />
    <path
       style="fill:#000000"
       d="m 589.48198,430.128 c 0.45162,-0.455 0.98884,-0.65956 1.19383,-0.45457 0.20499,0.20498 -0.16453,0.57727 -0.82113,0.82728 -0.94887,0.36131 -1.02534,0.28483 -0.3727,-0.37271 z"
       id="path3117" />
    <path
       style="fill:#000000"
       d="m 589.23143,428.21947 c -3.05547,-1.23425 -4.54778,-5.66373 -2.71318,-8.05322 1.09561,-1.42701 3.41369,-2.60543 5.1251,-2.60543 2.25798,0 4.67396,2.90957 4.67396,5.62886 0,2.24958 -1.80813,5.02361 -3.27444,5.02361 -0.33623,0 -1.01033,0.13106 -1.498,0.29125 -0.48767,0.1602 -1.52872,0.0319 -2.31344,-0.28507 z"
       id="path3115" />
    <path
       style="fill:#000000"
       d="m 594.65658,426.21186 c 2.80374,-3.09811 -0.91254,-8.97633 -4.80867,-7.60613 -4.12705,1.45141 -4.59908,6.93969 -0.73656,8.56376 2.40118,1.00963 4.01748,0.73049 5.54523,-0.95763 z"
       id="path3113" />
    <path
       style="fill:#000000"
       d="m 582.63319,426.94679 c 1.2451,-0.48725 1.23982,-0.5218 -0.13452,-0.8812 -0.79657,-0.20831 -1.54292,-0.0366 -1.68428,0.38748 -0.13962,0.41885 -0.25385,-0.28705 -0.25385,-1.56868 0,-1.28163 0.11423,-1.98753 0.25385,-1.56868 0.14136,0.42408 0.88771,0.59579 1.68428,0.38748 1.37434,-0.3594 1.37962,-0.39395 0.13452,-0.8812 -1.00555,-0.39351 -1.05312,-0.51761 -0.21231,-0.55391 0.59597,-0.0257 1.49477,0.46011 1.99733,1.07967 0.62088,0.76541 0.64701,0.96622 0.0815,0.62648 -0.56121,-0.33716 -0.83222,-0.0408 -0.83222,0.91016 0,0.95092 0.27101,1.24732 0.83222,0.91016 0.56548,-0.33973 0.53935,-0.13893 -0.0815,0.62648 -0.50256,0.61957 -1.40136,1.10542 -1.99733,1.07968 -0.84081,-0.0362 -0.79324,-0.16041 0.21231,-0.55392 z"
       id="path3111" />
    <path
       style="fill:#000000"
       d="m 598.0412,426.97789 c -0.19362,-0.31328 0.4628,-0.45668 1.45871,-0.31865 1.70532,0.23632 1.72353,0.21259 0.31274,-0.40763 -1.90635,-0.83807 -1.92332,-2.04646 -0.0356,-2.54009 1.39579,-0.36501 1.40337,-0.4055 0.16645,-0.88955 -1.00555,-0.39351 -1.05313,-0.51761 -0.21231,-0.55391 0.59597,-0.0257 1.49478,0.46011 1.99733,1.07967 0.62088,0.76541 0.64701,0.96622 0.0815,0.62648 -0.56121,-0.33716 -0.83222,-0.0408 -0.83222,0.91016 0,0.95092 0.27101,1.24732 0.83222,0.91016 0.56548,-0.33973 0.53935,-0.13893 -0.0815,0.62648 -0.96697,1.1921 -3.09596,1.51363 -3.68727,0.55688 z"
       id="path3109" />
    <path
       style="fill:#000000"
       d="m 565.20748,425.07994 c -1.66992,-2.54885 -1.44011,-8.89088 0.48426,-13.36421 1.59498,-3.70763 5.88139,-8.13629 7.87494,-8.13629 1.65455,0 3.53482,2.17603 6.37593,7.37887 4.1098,7.52613 2.99486,10.34062 -5.49928,13.88193 -6.08553,2.53715 -7.70312,2.57912 -9.23585,0.2397 z"
       id="path3107" />
    <path
       style="fill:#000000"
       d="m 574.08985,423.79589 c 5.71917,-2.4569 7.58032,-4.07769 7.58032,-6.6013 0,-0.77083 -1.4231,-3.77508 -3.16244,-6.67609 -3.88534,-6.48028 -5.42853,-7.04 -8.80549,-3.19386 -3.13583,3.57151 -4.21416,6.58272 -4.28312,11.9605 -0.0583,4.54791 0.76758,6.93082 2.40219,6.93082 0.34938,0 3.17022,-1.08902 6.26854,-2.42004 z"
       id="path3105" />
    <path
       style="fill:#000000"
       d="m 608.30133,424.84769 c -5.35867,-2.14314 -8.65512,-5.00077 -8.65512,-7.50298 0,-1.53234 3.32929,-7.55922 6.40872,-11.60146 2.09999,-2.75657 4.14881,-2.79103 7.1899,-0.12091 3.67266,3.22465 6.04186,8.72716 6.04186,14.03237 0,7.58896 -2.28895,8.67098 -10.98536,5.19298 z"
       id="path3103" />
    <path
       style="fill:#000000"
       d="m 617.35148,424.55013 c 1.4124,-2.15559 1.03045,-8.94718 -0.70571,-12.54846 -1.82682,-3.78936 -5.1911,-7.09065 -7.22595,-7.09065 -1.82481,0 -4.14269,2.7943 -7.01939,8.46217 -1.72735,3.40334 -1.78499,4.92621 -0.25755,6.80415 1.07063,1.31631 11.40905,6.00149 13.30023,6.02742 0.44928,0.006 1.30805,-0.73842 1.90837,-1.65463 z"
       id="path3101" />
    <path
       style="fill:#000000"
       d="m 598.09218,415.70979 c 0.24372,-1.75865 0.2314,-1.76604 -0.42825,-0.25699 -0.69415,1.58801 -2.04093,1.68956 -2.54026,0.19154 -0.15302,-0.45903 0.3492,-0.99867 1.11602,-1.1992 0.81296,-0.21259 1.20527,-0.67999 0.94099,-1.12113 -0.24925,-0.41609 0.0537,-0.34534 0.67328,0.15722 1.1921,0.96697 1.51362,3.09597 0.55687,3.68727 -0.31328,0.19362 -0.45668,-0.4628 -0.31865,-1.45871 z"
       id="path3099" />
    <path
       style="fill:#000000"
       d="m 585.43714,416.44542 c -0.24093,-0.24095 -0.43807,-0.83755 -0.43807,-1.32578 0,-0.99181 1.71628,-1.2153 2.2836,-0.29737 0.4531,0.73313 -1.24344,2.22524 -1.84553,1.62315 z"
       id="path3097" />
    <path
       style="fill:#000000"
       d="m 593.70676,415.47856 c -0.0289,-0.59597 0.47174,-1.49477 1.11255,-1.99733 1.01245,-0.79401 1.06778,-0.7829 0.42228,0.0849 -0.40855,0.54927 -0.9092,1.44807 -1.11255,1.99734 -0.30927,0.83538 -0.37831,0.8215 -0.42228,-0.0849 z"
       id="path3095" />
    <path
       style="fill:#000000"
       d="m 584.15574,413.48354 c 0.45163,-0.45501 0.98884,-0.65957 1.19384,-0.45458 0.20498,0.20499 -0.16453,0.57726 -0.82113,0.82728 -0.94887,0.3613 -1.02534,0.28484 -0.37271,-0.3727 z"
       id="path3093" />
    <path
       style="fill:#000000"
       d="m 589.28521,412.24369 c -2.22536,-0.87438 -10.27816,-9.98259 -10.27816,-11.62522 0,-3.42709 5.45749,-6.00816 12.42215,-5.87494 7.9492,0.15206 13.05147,3.21157 11.62274,6.96941 -0.91819,2.41501 -8.87341,10.3816 -10.7293,10.74463 -0.91545,0.17908 -2.2823,0.0829 -3.03743,-0.21388 z"
       id="path3091" />
    <path
       style="fill:#000000"
       d="m 596.70288,407.99972 c 6.45169,-6.661 6.89103,-8.6294 2.41952,-10.84042 -3.56251,-1.76155 -12.17813,-1.70956 -15.78778,0.0953 -4.20042,2.10021 -3.95916,3.79095 1.36094,9.53714 5.72737,6.1861 7.05619,6.31978 12.00732,1.20801 z"
       id="path3089" />
    <path
       style="fill:#666666"
       d="m 661.39721,428.22059 c 2.75592,-1.68029 2.82004,-3.71627 0.40746,-12.93591 -3.63975,-13.90913 -9.88263,-25.10302 -19.38683,-34.76173 -12.16082,-12.35851 -24.3169,-18.02856 -43.41062,-20.24832 -16.99057,-1.97526 -35.49167,3.57078 -47.84135,14.34132 -13.87569,12.10141 -26.4487,33.06886 -28.38641,47.33873 -0.43943,3.23605 -0.36274,3.47787 1.6361,5.15978 1.62266,1.36539 2.8105,1.76461 5.25036,1.76461 4.94624,0 6.17184,-1.74466 8.97341,-12.77392 5.14295,-20.24687 14.30206,-33.09641 28.65741,-40.2042 11.19515,-5.54307 27.59604,-7.35993 39.18946,-4.34131 14.32354,3.72946 27.90398,14.86034 34.59876,28.35804 1.60913,3.24425 4.24057,10.93373 7.15452,20.90668 1.86119,6.36974 4.04974,8.72151 8.11319,8.718 1.69614,-9e-4 3.77057,-0.545 5.04454,-1.32177 z"
       id="path3087" />
    <path
       style="fill:#666666"
       d="m 100.03709,425.8595 c 1.02393,-0.63649 1.70155,-2.3241 2.57464,-6.41215 2.68252,-12.56031 6.21196,-21.19825 11.3802,-27.85191 10.77212,-13.86813 24.66227,-20.80541 41.5796,-20.76646 15.69777,0.0362 28.48879,5.33647 39.10101,16.20264 7.48,7.659 11.39628,14.37521 15.85583,27.19196 2.83264,8.14102 3.66622,9.88314 5.5406,11.57943 2.93504,2.65617 9.16854,1.13383 10.89779,-2.66145 1.34979,-2.96245 -1.20003,-9.58923 -9.83259,-25.55411 -5.47085,-10.11766 -18.57362,-22.88281 -29.60523,-28.84236 -19.25137,-10.40007 -46.25908,-11.26027 -63.24902,-2.01449 -10.43841,5.68048 -21.28362,15.64541 -26.253351,24.12244 -4.04338,6.89691 -7.8221,17.05234 -9.6402,25.90834 -1.01481,4.94317 -0.92715,5.8156 0.78424,7.8052 2.42568,2.82003 7.44837,3.41764 10.866481,1.29292 z"
       id="path3085" />
    <path
       style="fill:#008000"
       d="m 684.20014,423.27532 c 6.39634,-1.14881 14.06805,-3.73929 20.16166,-6.8079 4.98043,-2.50803 14.45886,-8.62951 14.45886,-9.33801 0,-0.22229 -2.6215,-0.17931 -5.82557,0.0955 -3.20406,0.27482 -15.76232,0.69052 -27.90727,0.92378 -12.14494,0.23325 -22.25872,0.60109 -22.47503,0.81742 -0.21625,0.21633 0.40186,3.73664 1.37364,7.82291 l 1.76684,7.42958 6.72676,-0.0232 c 3.69974,-0.0128 8.97377,-0.42681 11.72011,-0.92006 z"
       id="path3083" />
    <path
       style="fill:#008000"
       d="m 342.65547,420.86409 c 28.52493,-0.77053 147.61684,-0.46057 168.85831,0.43947 l 9.40423,0.39849 1.09615,-4.90018 c 2.31504,-10.34902 12.48944,-27.62768 22.48847,-38.19096 8.49085,-8.96999 18.80816,-15.14714 30.84264,-18.46602 6.73579,-1.8576 21.39597,-2.3129 29.44312,-0.91443 8.70746,1.51323 17.579,4.5316 24.1521,8.2173 4.33466,2.43055 7.45995,4.9654 13.35365,10.83088 8.43616,8.39579 12.85932,14.58608 16.65101,23.30349 l 2.46151,5.65912 7.23562,0.21075 c 8.10047,0.23595 44.87052,-1.07331 49.5126,-1.76297 2.63775,-0.39189 3.2494,-0.82426 5.11504,-3.61581 7.78403,-11.64725 7.77924,-31.68056 -0.012,-48.57583 -1.22876,-2.66459 -2.60559,-5.97513 -3.05965,-7.35678 l -0.82564,-2.51207 -3.43861,0.51473 c -1.89122,0.28312 -6.47517,0.49389 -10.18655,0.46839 -6.07937,-0.0417 -7.13489,-0.23967 -10.65247,-1.99733 -4.45752,-2.22749 -6.9002,-5.31907 -6.9002,-8.73376 0,-4.19009 4.02257,-10.19608 10.4936,-15.66785 4.87831,-4.1249 8.97271,-6.00884 13.20814,-6.07726 3.80306,-0.0614 3.72689,0.18598 1.8191,-5.91279 -0.69267,-2.21428 -1.88775,-3.94355 -4.02583,-5.82556 l -3.04068,-2.67652 -6.2034,0 c -3.41185,0 -13.93063,-0.59638 -23.37497,-1.32527 -20.43017,-1.57675 -56.43765,-3.74114 -72.93056,-4.3838 -6.49967,-0.25327 -11.81758,-0.73828 -11.81758,-1.07781 0,-0.35367 1.91932,-0.46425 4.49401,-0.25893 2.4717,0.19712 8.68841,0.52807 13.81491,0.73544 17.02848,0.68882 44.34021,2.33466 66.37311,3.99971 11.97124,0.90469 23.05646,1.6199 24.63383,1.58938 l 2.86791,-0.0554 -3.5038,-1.65682 c -6.48902,-3.06848 -26.53955,-7.41045 -45.43097,-9.83816 -8.20385,-1.05428 -34.70694,-3.34303 -47.27031,-4.08217 -4.21104,-0.24775 -8.55525,-0.82247 -9.65379,-1.27716 -1.09854,-0.4547 -5.4664,-3.63944 -9.70637,-7.07721 -13.65498,-11.07145 -36.64377,-28.35411 -51.06266,-38.38822 -10.0316,-6.98098 -13.09952,-10.13748 -12.54547,-12.9077 0.36238,-1.81188 0.16846,-2.04367 -2.76174,-3.30112 -5.11685,-2.1958 -15.76759,-4.50683 -26.45375,-5.73998 -8.54957,-0.9866 -16.74115,-1.15348 -56.92411,-1.15965 -43.1992,-0.006 -48.36024,0.1135 -64.80229,1.50842 -16.79292,1.42469 -29.404,3.1532 -35.31085,4.83979 -1.90155,0.54295 -2.38118,0.93099 -1.83089,1.48127 1.23283,1.23282 0.84312,4.15119 -0.7524,5.63452 -0.8239,0.76596 -4.94341,3.41831 -9.15446,5.89412 -16.06376,9.44434 -34.74619,22.07913 -48.67047,32.91547 -7.95267,6.18904 -16.19213,12.46658 -18.30988,13.95007 -5.43998,3.81072 -11.03294,5.42832 -19.70605,5.69943 -5.25645,0.16431 -8.49675,0.65583 -12.35179,1.87363 -5.93077,1.87353 -15.99712,4.06346 -32.45319,7.06014 -69.41937,12.64144 -96.051461,22.40294 -116.205761,42.59309 -5.9073,5.91782 -17.282948,21.4611 -17.282948,23.61482 0,1.77981 12.899168,7.9863 22.105248,10.63605 4.77986,1.37576 19.829291,3.72074 23.938661,3.73009 2.71204,0.006 3.90667,-0.53151 9.52125,-4.28536 3.53104,-2.36083 8.12753,-4.93517 10.21442,-5.72077 21.38325,-8.04966 46.07153,-5.16935 65.79252,7.67581 7.29381,4.75079 16.75446,14.2309 21.86186,21.90686 5.2096,7.82954 12.19195,21.87552 12.73376,25.61571 0.24569,1.69609 0.60135,3.34947 0.79035,3.6742 0.42703,0.73369 73.78154,0.1195 113.33494,-0.94894 z"
       id="path3081" />
    <path
       style="fill:#000000"
       d="m 264.88984,411.62102 c -4.1844,-1.42609 -7.12921,-4.04114 -8.19818,-7.28018 -0.42617,-1.29131 -0.9574,-6.1104 -1.1805,-10.70908 l -0.40565,-8.36125 -16.64447,0.22887 c -13.76414,0.18926 -16.86483,0.0619 -17.91777,-0.73595 -3.20479,-2.42837 0.77231,-3.82048 10.91474,-3.82048 2.82042,0 9.22002,-0.19625 14.22133,-0.43611 l 9.09329,-0.4361 0,-37.42243 c 0,-38.53384 0.21114,-42.19287 2.73559,-47.40771 2.01467,-4.16173 25.95515,-25.86587 38.399,-34.81203 23.58607,-16.95657 46.14269,-31.58032 52.58627,-34.09237 8.78472,-3.42473 22.00114,-5.44915 46.75853,-7.16221 12.74735,-0.88203 78.15285,-0.87153 89.01169,0.0143 10.89289,0.8886 17.7524,2.59448 24.01424,5.97207 6.08936,3.28456 18.93422,11.84212 35.7757,23.83464 26.43633,18.82483 39.22846,29.26752 40.95332,33.43171 1.05454,2.54589 0.49734,33.45686 -0.92201,51.14892 -0.75996,9.47293 -1.1619,11.87142 -2.23141,13.31558 -1.92239,2.59583 -5.02407,4.49035 -10.039,6.13189 -10.9274,3.57687 -25.19156,12.36782 -33.42102,20.59728 -5.35189,5.35189 -13.43335,16.33089 -17.97504,24.41981 -2.01398,3.58698 -4.4835,7.46129 -5.48783,8.60956 -2.78133,3.18 -7.64346,4.96733 -14.38676,5.28861 -3.16685,0.15088 -56.69,0.41199 -118.94036,0.58024 -107.87573,0.29157 -113.34801,0.24949 -116.7137,-0.89758 z"
       id="path3079" />
    <path
       style="fill:#008000"
       d="m 397.08403,411.14954 c 9.52977,-0.44482 11.53921,-1.34619 13.9875,-6.27443 1.46216,-2.94325 1.51463,-3.74361 1.83288,-27.96177 1.05411,-80.21285 1.10854,-81.37878 4.22575,-90.52049 1.05957,-3.10732 4.92278,-13.13968 8.58494,-22.29414 6.73258,-16.82975 13.47834,-36.31862 13.47834,-38.9397 0,-2.2426 -1.09758,-3.74319 -3.4699,-4.74396 -2.74177,-1.15663 -29.8035,-1.14757 -44.79908,0.015 -23.72712,1.83951 -35.83135,3.96113 -44.04147,7.71956 -6.64966,3.04408 -39.81967,25.01573 -55.93375,37.05025 -2.62285,1.95882 -10.64537,8.94074 -17.82784,15.51535 -15.48592,14.17536 -16.1363,15.15673 -17.05512,25.73464 -0.54177,6.23719 -0.35364,72.99191 0.20728,73.55284 0.13313,0.13314 15.20442,-0.19353 33.49174,-0.72592 57.73015,-1.68066 90.34269,-2.35715 92.66163,-1.92211 1.80854,0.33928 2.20483,0.69602 2.0419,1.83819 -0.31848,2.23263 1.83581,2.11865 -83.42455,4.41362 -13.54861,0.36469 -29.2362,0.85808 -34.86132,1.09643 l -10.22748,0.43336 0.4765,8.38937 c 0.75143,13.22999 2.87018,16.46069 11.79154,17.97988 3.67698,0.62615 114.37099,0.32036 128.86051,-0.35597 z"
       id="path3077" />
    <path
       style="fill:#000000"
       d="m 370.95108,324.58101 c -2.18404,-0.59411 -4.2795,-2.9578 -4.72435,-5.32911 -0.35053,-1.86848 -0.70411,-2.22375 -2.21317,-2.22375 -2.37962,0 -4.25173,-1.44163 -3.9478,-3.04001 0.19153,-1.00722 0.89582,-1.33049 3.23485,-1.48481 2.92727,-0.19311 3.01098,-0.26296 3.98868,-3.32889 0.78693,-2.46763 1.49276,-3.37022 3.3289,-4.25683 4.52374,-2.18437 22.09874,-2.38581 24.97013,-0.28621 0.66577,0.48683 1.27507,2.10985 1.48232,3.94855 0.32138,2.85138 0.50596,3.12197 2.12948,3.12197 2.05645,0 3.37547,1.08774 3.37547,2.78359 0,1.14939 -1.05155,1.61155 -4.60369,2.02337 -1.23931,0.14368 -1.77358,0.78038 -2.33171,2.77876 -1.29208,4.62627 -2.9731,5.2914 -13.86506,5.48599 -5.22087,0.0933 -10.09169,0.006 -10.82405,-0.19262 z"
       id="path3075" />
    <path
       style="fill:#ffffff"
       d="m 386.82931,323.73202 c 5.83662,-0.61194 7.44272,-1.63744 8.15686,-5.20817 l 0.4323,-2.16148 -7.57324,0.004 c -4.16528,0.002 -10.49434,0.19688 -14.06459,0.4333 l -6.49135,0.42986 0,1.90344 c 0,4.55769 6.14454,6.00407 19.54002,4.5996 z"
       id="path3073" />
    <path
       style="fill:#000000"
       d="m 401.58905,314.90866 c 0.24975,-0.25026 0.25661,-0.77457 0.0153,-1.1651 -0.54099,-0.87533 -38.85205,-0.9787 -40.22587,-0.10855 -0.50463,0.31964 -0.70394,0.92674 -0.44287,1.34914 0.5223,0.84511 39.80758,0.77217 40.65348,-0.0755 z"
       id="path3071" />
    <path
       style="fill:#ffffff"
       d="m 388.42778,311.70536 7.49001,-0.004 0,-3.01249 c 0,-2.67247 -0.20664,-3.09165 -1.83088,-3.71382 -1.09169,-0.41817 -5.8756,-0.61312 -11.84896,-0.48286 -8.17666,0.17832 -10.3455,0.43328 -11.79945,1.38706 -1.70949,1.12143 -3.31439,4.84568 -2.62118,6.08256 0.1847,0.32954 3.1754,0.40507 6.7265,0.1699 3.51667,-0.23291 9.76446,-0.42502 13.88396,-0.42691 z"
       id="path3069" />
    <path
       style="fill:#000000"
       d="m 300.3785,304.41473 c -1.95969,-0.80207 -3.67364,-2.94228 -4.65917,-5.81787 l -0.87077,-2.54075 -4.20018,-0.20187 c -2.3101,-0.11103 -4.58618,-0.52221 -5.05794,-0.91375 -1.37604,-1.14201 -0.99288,-3.80311 0.80669,-5.6027 0.91545,-0.91544 1.66445,-1.75563 1.66445,-1.86708 0,-0.11145 -2.24397,-0.0586 -4.98659,0.11739 -5.09178,0.32676 -6.99744,-0.29034 -6.99744,-2.26597 0,-1.73891 5.05276,-5.95556 22.30636,-18.61522 31.82338,-23.35007 47.43101,-33.43716 56.4598,-36.48954 7.04258,-2.3809 26.46775,-4.57083 51.06078,-5.75643 17.68054,-0.85237 23.4213,-0.52283 25.40233,1.4582 1.76419,1.76419 1.42869,3.12451 -4.07959,16.54175 -2.48044,6.04194 -6.2377,15.62917 -8.34948,21.30494 -5.37916,14.45748 -6.99779,17.50627 -10.10594,19.03516 -2.33799,1.15004 -5.16631,1.28018 -36.48917,1.67906 -18.6751,0.2378 -39.12869,0.66383 -45.45242,0.94673 l -11.49767,0.51435 -0.37867,1.7286 c -1.95746,8.93566 -5.25331,14.56603 -9.52765,16.27629 -3.06032,1.2245 -3.17513,1.23516 -5.04773,0.46871 z"
       id="path3067" />
    <path
       style="fill:#008000"
       d="m 306.34346,302.39774 c 3.57657,-2.21046 6.93269,-9.78348 8.33968,-18.81833 1.19005,-7.64184 -1.64712,-11.6702 -7.73595,-10.98389 -4.02098,0.45322 -6.14891,2.13466 -8.51029,6.72464 -3.3112,6.43619 -3.28775,18.43264 0.0437,22.39191 2.02014,2.40079 4.70836,2.63521 7.86279,0.68567 z"
       id="path3065" />
    <path
       style="fill:#008000"
       d="m 294.73526,291.5621 c 0.009,-1.92244 0.29177,-4.68533 0.62899,-6.13976 0.3372,-1.45443 0.55476,-2.70162 0.48345,-2.77152 -0.3655,-0.35828 -9.54156,7.99139 -10.08561,9.1773 -0.92557,2.01754 1.10929,3.22933 5.42274,3.22933 l 3.53454,0 0.0159,-3.49535 z"
       id="path3063" />
    <path
       style="fill:#00ffff"
       d="m 293.78019,282.57409 c 2.16436,-2.10553 4.44197,-4.79568 5.06136,-5.97812 1.66638,-3.18115 4.82354,-4.83534 9.23431,-4.8383 5.73171,-0.004 7.94845,2.70421 7.94845,9.71022 l 0,3.63402 5.15979,-0.36536 c 10.57234,-0.7486 46.18206,-1.66313 64.75871,-1.66313 11.99061,0 19.91353,-0.26686 21.08345,-0.71013 3.38631,-1.28304 4.80676,-3.38834 8.23953,-12.21214 1.86486,-4.79355 6.21387,-15.79705 9.66447,-24.45222 3.45061,-8.65516 6.27384,-16.5271 6.27384,-17.49318 0,-2.94154 -2.00227,-3.24517 -18.64182,-2.82695 -22.02059,0.55347 -44.49107,2.57364 -53.92811,4.84832 -6.70977,1.6173 -13.0697,5.06526 -29.30715,15.88854 -18.28259,12.18648 -45.15325,31.80288 -49.75412,36.32198 -3.54111,3.47819 -3.04366,3.96467 4.05416,3.96467 l 6.21793,0 3.9352,-3.82822 z"
       id="path3061" />
    <path
       style="fill:#008000"
       d="m 507.29937,410.0843 c 4.99517,-1.66847 7.40503,-3.96905 11.17548,-10.66863 13.71708,-24.3735 28.95344,-38.18357 51.61122,-46.77982 7.93052,-3.0088 10.57288,-4.71955 11.66677,-7.55349 1.69843,-4.40008 3.97218,-57.45899 2.63584,-61.50816 -1.39316,-4.22129 -11.58531,-12.7816 -36.34036,-30.52197 -18.42407,-13.20335 -36.58141,-25.31514 -41.6691,-27.79522 -9.04309,-4.40822 -16.71361,-5.3481 -47.5453,-5.82582 -17.32843,-0.2685 -22.34866,-0.16951 -21.409,0.42214 2.08612,1.31351 3.1399,4.74476 2.36592,7.7038 -2.06175,7.88245 -6.95029,21.32851 -16.51847,45.43454 -2.95878,7.45436 -5.82918,15.24398 -6.37864,17.31026 -1.60015,6.01742 -2.3554,24.13511 -2.90423,69.66901 -0.56389,46.78329 -0.44556,45.53839 -4.6656,49.08932 -1.14832,0.96625 -2.08786,1.93609 -2.08786,2.15519 0,0.2191 21.79594,0.29414 48.43542,0.16677 42.23083,-0.20191 48.84439,-0.36818 51.62791,-1.29792 z"
       id="path3059" />
    <path
       style="fill:#000000"
       d="m 421.55029,380.30875 c -2.29963,-0.31469 -2.66312,-0.59161 -2.66312,-2.02888 0,-1.66021 0.0203,-1.66549 7.98935,-2.07351 12.45275,-0.63759 97.09545,-0.63785 98.10148,-2.9e-4 0.49375,0.31289 0.78993,1.13221 0.65817,1.82069 -0.21464,1.12154 -1.13935,1.29624 -8.88709,1.67906 -11.38872,0.56271 -91.77232,1.07182 -95.19879,0.60293 z"
       id="path3057" />
    <path
       style="fill:#ffffff"
       d="m 522.91515,378.55049 c 3.65535,-0.55909 2.41024,-1.46557 -2.66311,-1.93884 -6.43069,-0.5999 -100.10781,0.52013 -100.79164,1.20509 -0.29407,0.29455 -0.0939,0.8257 0.44472,1.18034 0.98746,0.65013 98.60675,0.22691 103.01003,-0.44659 z"
       id="path3055" />
    <path
       style="fill:#000000"
       d="m 540.22759,326.42334 c -3.33577,-0.70834 -4.97537,-2.32563 -5.49883,-5.42404 -0.41481,-2.45518 -0.55575,-2.577 -3.20522,-2.77028 -2.12007,-0.15465 -2.82881,-0.50473 -3.01591,-1.48971 -0.31933,-1.68096 1.60397,-3.04001 4.30212,-3.04001 1.84004,0 2.21235,-0.28351 2.5819,-1.96607 1.21842,-5.54742 5.25852,-6.95805 18.88414,-6.59351 8.37798,0.22415 8.94169,0.32469 10.14332,1.80909 0.75741,0.93565 1.27235,2.60347 1.27235,4.12094 0,2.46403 0.0832,2.55607 2.49114,2.7558 1.80062,0.14936 2.55611,0.54919 2.72555,1.44247 0.32119,1.69324 -0.70748,2.55193 -3.62519,3.02619 -2.20024,0.35764 -2.55127,0.69317 -3.20459,3.06315 -1.07871,3.91307 -3.48354,4.86068 -13.36694,5.26712 -4.39414,0.1807 -9.11187,0.0902 -10.48384,-0.20114 z"
       id="path3053" />
    <path
       style="fill:#ffffff"
       d="m 559.12805,325.00243 c 2.85919,-0.79417 3.5869,-1.5685 4.2092,-4.47889 l 0.46268,-2.16379 -14.03426,0 -14.03427,0 0,1.70822 c 0,2.31371 1.1179,4.23775 2.87309,4.94493 2.02573,0.81619 17.57598,0.80825 20.52356,-0.0104 z"
       id="path3051" />
    <path
       style="fill:#000000"
       d="m 570.01346,316.26448 c 0.43131,-0.40719 0.3159,-0.85712 -0.33289,-1.29768 -1.26089,-0.85624 -39.32547,-0.0809 -40.2685,0.82019 -1.76216,1.68385 1.87443,1.95416 20.63359,1.53362 10.61917,-0.23805 19.60469,-0.71331 19.9678,-1.05613 z"
       id="path3049" />
    <path
       style="fill:#ffffff"
       d="m 564.35991,310.72672 c 0,-2.35046 -0.29641,-3.13122 -1.41628,-3.73055 -2.11748,-1.13324 -10.79173,-1.50904 -17.47126,-0.75691 -6.49098,0.7309 -7.9675,1.60043 -9.03439,5.32042 l -0.61363,2.13962 14.26778,0 14.26778,0 0,-2.97258 z"
       id="path3047" />
    <path
       style="fill:#000000"
       d="m 494.4531,283.57322 c -65.78351,-0.65051 -63.9148,-0.53056 -63.9148,-4.10242 0,-1.74779 2.03521,-9.11634 5.99274,-21.69695 1.43988,-4.57723 3.99156,-12.81624 5.67041,-18.30892 3.46319,-11.33054 4.18993,-12.71997 7.34195,-14.03697 3.79457,-1.58547 30.73758,-0.90523 43.45315,1.09708 9.28197,1.46162 17.52343,6.3546 47.73708,28.34163 23.86806,17.36923 27.1483,19.88611 30.11762,23.10875 4.97086,5.39492 3.66363,6.47931 -7.61269,6.3149 -4.32667,-0.0632 -35.28013,-0.38578 -68.78546,-0.7171 z"
       id="path3045" />
    <path
       style="fill:#00ffff"
       d="m 572.34925,281.88332 c 0,-2.53129 -7.30336,-8.33808 -39.96496,-31.77548 -21.97352,-15.76782 -29.08058,-20.05267 -36.26675,-21.86525 -8.39027,-2.11631 -42.35091,-3.48357 -46.4062,-1.86833 -2.38629,0.95046 -3.10036,2.49133 -7.14645,15.42089 -1.89072,6.04195 -3.70331,11.58456 -4.02796,12.31692 -0.46681,1.05302 -3.26764,10.96793 -7.07323,25.03917 -0.76728,2.83703 0.0581,2.90583 39.28945,3.27496 20.54163,0.19328 51.80415,0.41798 69.47226,0.49933 30.4628,0.14028 32.12384,0.0864 32.12384,-1.04221 z"
       id="path3043" />
    <path
       style="fill:#ffffff"
       d="m 254.96088,383.63373 c 0.28664,-0.25891 0.32991,-0.96914 0.0962,-1.5783 -0.34349,-0.89511 -1.08196,-1.04764 -3.85006,-0.79518 -1.88377,0.17181 -9.24836,0.48676 -16.36573,0.6999 -14.50042,0.43422 -17.78504,1.14708 -11.69315,2.53774 2.03558,0.46468 31.21927,-0.32806 31.81278,-0.86416 z"
       id="path3041" />
    <path
       style="fill:#ffffff"
       d="m 288.06157,382.94353 c 12.99934,-0.36463 36.51798,-0.99261 52.26366,-1.39548 34.01794,-0.87041 43.33863,-1.36117 43.10274,-2.26951 -0.24476,-0.94252 -39.58919,-0.6426 -81.79926,0.62353 -19.08601,0.5725 -37.13695,1.04092 -40.11319,1.04092 -5.3062,0 -5.41134,0.0318 -5.41134,1.6394 0,1.59995 0.1001,1.63199 4.16111,1.33176 2.28862,-0.1692 14.79694,-0.60598 27.79628,-0.97062 z"
       id="path3039" />
    <path
       style="fill:#000000"
       d="m 685.02696,371.59933 c -4.0964,-1.64607 -3.03402,-6.82641 1.5773,-7.6915 3.38049,-0.63418 10.79675,0.16235 12.61712,1.35512 2.4956,1.63517 2.74893,3.70203 0.67276,5.4879 -1.58075,1.3597 -2.45465,1.53214 -7.5753,1.4948 -3.18369,-0.0232 -6.46498,-0.31405 -7.29188,-0.64632 z"
       id="path3037" />
    <path
       style="fill:#000000"
       d="m 698.11885,370.87838 c 1.76178,-0.61415 2.098,-1.04639 1.93022,-2.48125 -0.28941,-2.47538 -2.67863,-3.4116 -8.73556,-3.42303 -5.91504,-0.0111 -7.77916,0.69051 -7.77916,2.9281 0,1.71016 0.94794,2.7347 2.99601,3.23812 2.56645,0.63083 9.47544,0.47467 11.58849,-0.26194 z"
       id="path3035" />
    <path
       style="fill:#000000"
       d="m 88.494279,342.01358 c -2.60185,-1.89813 -1.90931,-3.90922 3.19754,-9.28541 10.615171,-11.17502 21.355851,-17.98246 32.588091,-20.65433 17.4052,-4.14028 66.7562,-10.4895 103.52865,-13.31942 7.32357,-0.56362 15.03829,-1.19146 17.14382,-1.39524 2.11809,-0.20498 3.82822,-0.10081 3.82822,0.23318 0,0.33202 -3.0709,0.80761 -6.82423,1.05687 -31.37881,2.0839 -84.60165,8.136 -106.16956,12.0728 -11.71359,2.13809 -11.57185,2.08134 -9.04148,3.62015 3.80552,2.31428 4.17624,7.64542 0.90028,12.94603 -4.79153,7.75288 -18.95137,14.45286 -32.659981,15.45366 -3.99231,0.29147 -5.29366,0.14547 -6.49135,-0.72829 z"
       id="path3033" />
    <path
       style="fill:#ffff00"
       d="m 105.30521,340.04664 c 5.38426,-1.43004 14.0051,-5.73124 17.50332,-8.73296 5.51465,-4.73193 7.73357,-12.0785 4.59584,-15.21622 -3.72077,-3.72078 -9.72889,-2.40844 -19.66578,4.29554 -6.46539,4.36192 -15.326071,12.24787 -18.164711,16.16649 -1.53472,2.11864 -1.74617,2.83649 -1.15875,3.93408 0.6637,1.24014 1.18299,1.31478 6.80696,0.97831 3.34864,-0.20035 7.886041,-0.84171 10.083121,-1.42524 z"
       id="path3031" />
    <path
       style="fill:#008000"
       d="m 85.954189,419.39174 c 0.13623,-0.45773 0.7569,-3.07923 1.37925,-5.82557 0.62236,-2.74635 2.1894,-7.83955 3.4823,-11.31825 2.37506,-6.39033 7.86536,-16.64447 8.91185,-16.64447 0.312171,0 1.288381,-1.14185 2.169381,-2.53744 0.881,-1.39559 3.03951,-3.91521 4.79668,-5.59915 l 3.19488,-3.06172 -3.29033,-0.42273 c -20.982341,-2.69575 -33.935081,-6.49866 -42.341187,-12.43134 -0.971976,-0.68598 -2.063764,-1.24723 -2.426198,-1.24723 -0.362442,0 -1.405514,1.86589 -2.317934,4.14643 l -1.658965,4.14643 4.528865,4.84947 c 5.737368,6.14351 7.969018,10.47361 7.969018,15.46234 0,6.3281 -3.207498,9.59596 -11.238177,11.44966 -1.874925,0.43278 -3.406152,1.10993 -3.402716,1.50477 0.01502,1.72613 4.180563,7.7579 7.285465,10.54948 3.827602,3.44134 8.065028,5.6871 12.986958,6.88286 4.5428,1.10364 9.65639,1.15311 9.97086,0.0965 z"
       id="path3029" />
    <path
       style="fill:#cccccc"
       d="m 542.99681,417.06151 c 1.30787,-0.74439 2.0486,-1.69363 2.05129,-2.62875 0.008,-2.74519 3.29351,-11.84264 5.80601,-16.0761 9.10235,-15.33708 26.09984,-24.39662 43.46586,-23.16698 11.36705,0.80488 19.95673,4.24819 28.67712,11.49565 6.73503,5.59746 10.65385,10.83903 15.17095,20.29176 3.13367,6.55767 6.75114,11.46601 6.75114,9.16025 0,-1.92602 -3.92189,-12.55752 -6.30616,-17.09478 -3.36041,-6.39488 -11.43454,-16.05206 -15.0679,-18.02216 -14.68437,-7.96225 -18.34305,-9.03482 -30.55671,-8.9579 -10.58984,0.0667 -16.66226,1.40794 -24.96671,5.51455 -13.66557,6.7577 -22.55486,19.0742 -27.5364,38.1529 -0.7345,2.81311 -0.40163,2.9896 2.51151,1.33156 z"
       id="path3027" />
    <path
       style="fill:#cccccc"
       d="m 207.34985,410.43634 c -4.96025,-13.20569 -12.15397,-22.40787 -23.14983,-29.61316 -6.63936,-4.35061 -11.24917,-6.17082 -19.09162,-7.53843 -7.28799,-1.27091 -12.96624,-1.26277 -19.21307,0.0275 -19.00326,3.92524 -33.01936,16.85042 -38.85412,35.83 -1.77727,5.7812 -1.7773,5.781 0.5176,4.91477 1.57276,-0.59364 2.10834,-1.39735 2.95632,-4.43617 4.53367,-16.24719 18.03929,-29.36791 34.40393,-33.42348 5.24768,-1.3005 17.92014,-1.11078 23.26375,0.34829 17.12763,4.6767 30.746,17.83131 35.56856,34.35733 0.79651,2.72949 1.62145,4.04454 3.24017,5.16517 1.19439,0.82687 2.26331,1.22828 2.3754,0.89204 0.11208,-0.33623 -0.79561,-3.272 -2.01709,-6.52392 z"
       id="path3025" />
    <path
       style="fill:#008000"
       d="m 64.674253,397.30057 c 5.154786,-3.0209 6.301216,-8.58292 3.118986,-15.13218 -1.391084,-2.86295 -9.033667,-11.87787 -10.069723,-11.87787 -0.29606,0 -1.245908,2.77131 -2.11079,6.15846 -1.184284,4.63804 -1.572514,7.96652 -1.572514,13.48202 0,9.66732 0.128537,9.94233 4.409826,9.43528 1.860685,-0.22037 4.661577,-1.14994 6.224215,-2.06571 z"
       id="path3023" />
    <path
       style="fill:#ffff00"
       d="m 718.16273,342.58687 c 0.8954,-0.89615 -2.257,-27.25368 -3.42844,-28.66517 -2.08009,-2.50637 -9.69833,0.10532 -15.88701,5.44638 -12.06499,10.41255 -12.76239,19.19381 -1.83243,23.07274 2.84494,1.00965 5.0733,1.20788 11.95286,1.06333 5.07584,-0.10665 8.7514,-0.47332 9.19502,-0.91728 z"
       id="path3021" />
    <path
       style="fill:#00ffff"
       d="m 252.84537,280.4854 c 4.86418,-1.86413 7.02286,-3.34952 22.89929,-15.75706 14.16936,-11.07346 36.56009,-26.31606 50.26632,-34.21906 9.58211,-5.52504 11.65246,-7.25141 11.03382,-9.20059 -0.85696,-2.70002 -4.23221,-2.34513 -12.69827,1.33518 -12.43414,5.4053 -29.33962,16.35988 -55.48026,35.95067 -10.74051,8.04935 -22.55127,16.55191 -26.24614,18.8946 -3.69486,2.34269 -6.8912,4.44445 -7.10297,4.67058 -0.21176,0.22613 2.76078,0.26371 6.60565,0.0835 4.908,-0.23003 8.10249,-0.75373 10.72256,-1.75782 z"
       id="path3019" />
    <path
       style="fill:#00ffff"
       d="m 609.63288,279.10399 c -2.1723,-1.16296 -11.88711,-8.9523 -24.32469,-19.50351 -5.72305,-4.85506 -9.3446,-7.44787 -30.26919,-21.67095 -11.239,-7.63949 -27.16743,-17.4393 -28.34548,-17.4393 -0.15567,0 -0.28302,0.80035 -0.28302,1.77857 0,2.36421 3.65905,5.7868 13.34454,12.48215 11.23317,7.76522 42.10759,30.96888 50.90314,38.25622 2.92943,2.4271 5.89118,4.85654 6.58166,5.39875 1.31786,1.03485 5.78841,1.77295 11.39438,1.88126 l 3.32889,0.0643 -2.33023,-1.24751 z"
       id="path3015" />
    <path
       style="fill:#008000"
       d="m 190.70817,811.6329 c 13.71787,-0.7483 27.14402,-1.9656 47.6032,-4.31596 17.22104,-1.97837 17.65865,-2.06181 16.72342,-3.18871 -0.39408,-0.47483 -0.78657,-4.74301 -0.89098,-9.68923 l -0.18663,-8.84054 -2.54075,-0.87249 c -1.3974,-0.47988 -3.15034,-1.42418 -3.89542,-2.09847 -1.40791,-1.27414 -8.83084,-12.07851 -9.33271,-13.58412 -0.20643,-0.61929 -0.89506,-0.40901 -2.46874,0.75385 -2.08386,1.53988 -2.62345,1.61066 -11.94578,1.56686 -11.74155,-0.0552 -21.2052,-0.93798 -42.38651,-3.95401 -29.61593,-4.21704 -53.95327,-9.19779 -66.23105,-13.55446 -3.10483,-1.10173 -5.73242,-1.91586 -5.8391,-1.80918 -0.10667,0.10668 1.08545,1.03651 2.64915,2.0663 6.95343,4.57922 15.40856,14.34366 17.41111,20.1073 1.16657,3.35754 2.1347,6.71242 1.49544,7.13857 0.0677,0.44712 -0.0685,1.02892 -0.085,1.54468 -0.39103,6.2284 -3.91646,12.94948 -8.81273,13.7767 -3.39025,0.57278 -8.9793,-0.9071 -11.73766,-3.10791 -2.10013,-1.67563 -7.84399,-9.76829 -11.696541,-14.70713 -0.593521,-0.76087 -1.63117,-2.4271 -1.75901,-2.29927 -0.12783,0.12783 0.17114,1.7165 0.66437,3.53036 5.171721,19.01898 22.037551,29.76286 50.652051,32.26646 6.60822,0.5782 24.13941,0.278 42.60985,-0.7296 z"
       id="path3261-5"
       inkscape:connector-curvature="0"
       sodipodi:nodetypes="cscscssssssscssccssscsscc" />
  </g>
</svg>
